<mxfile host="app.diagrams.net" modified="2021-12-28T09:17:56.059Z" agent="5.0 (Windows NT 10.0; Win64; x64) AppleWebKit/537.36 (KHTML, like Gecko) Chrome/96.0.4664.110 Safari/537.36" etag="Tbf3096ImfbHbrC7w8la" version="16.0.0" type="github">
  <diagram id="lm0DQrUfTW2sCRNbaUu4" name="Page-1">
    <mxGraphModel dx="865" dy="488" grid="1" gridSize="10" guides="1" tooltips="1" connect="1" arrows="1" fold="1" page="1" pageScale="1" pageWidth="827" pageHeight="1169" math="0" shadow="0">
      <root>
        <mxCell id="0" />
        <mxCell id="1" parent="0" />
        <mxCell id="vnJfhgnDVNhTZriFCoJO-1" value="20交投P01&amp;nbsp; 4.78&amp;nbsp;&amp;nbsp;&amp;nbsp;5000&amp;nbsp; +0&amp;nbsp; &amp;nbsp;XX银行 出给 YY资管&amp;nbsp;" style="rounded=0;whiteSpace=wrap;html=1;" vertex="1" parent="1">
          <mxGeometry x="160" y="695" width="490" height="30" as="geometry" />
        </mxCell>
        <mxCell id="vnJfhgnDVNhTZriFCoJO-2" value="&lt;font style=&quot;font-size: 16px&quot;&gt;&lt;b&gt;PLM&lt;/b&gt;&lt;/font&gt;" style="rounded=1;whiteSpace=wrap;html=1;" vertex="1" parent="1">
          <mxGeometry x="160" y="595" width="490" height="80" as="geometry" />
        </mxCell>
        <mxCell id="vnJfhgnDVNhTZriFCoJO-3" value="" style="rounded=1;whiteSpace=wrap;html=1;" vertex="1" parent="1">
          <mxGeometry x="160" y="435" width="240" height="145" as="geometry" />
        </mxCell>
        <mxCell id="vnJfhgnDVNhTZriFCoJO-4" value="" style="ellipse;whiteSpace=wrap;html=1;aspect=fixed;fillColor=#0000FF;" vertex="1" parent="1">
          <mxGeometry x="220" y="505" width="10" height="10" as="geometry" />
        </mxCell>
        <mxCell id="vnJfhgnDVNhTZriFCoJO-6" value="" style="ellipse;whiteSpace=wrap;html=1;aspect=fixed;fillColor=#0000FF;" vertex="1" parent="1">
          <mxGeometry x="260" y="505" width="10" height="10" as="geometry" />
        </mxCell>
        <mxCell id="vnJfhgnDVNhTZriFCoJO-7" value="" style="ellipse;whiteSpace=wrap;html=1;aspect=fixed;fillColor=#0000FF;" vertex="1" parent="1">
          <mxGeometry x="300" y="505" width="10" height="10" as="geometry" />
        </mxCell>
        <mxCell id="vnJfhgnDVNhTZriFCoJO-8" value="" style="ellipse;whiteSpace=wrap;html=1;aspect=fixed;fillColor=#0000FF;" vertex="1" parent="1">
          <mxGeometry x="340" y="505" width="10" height="10" as="geometry" />
        </mxCell>
        <mxCell id="vnJfhgnDVNhTZriFCoJO-9" value="" style="ellipse;whiteSpace=wrap;html=1;aspect=fixed;fillColor=#99CCFF;" vertex="1" parent="1">
          <mxGeometry x="240" y="525" width="10" height="10" as="geometry" />
        </mxCell>
        <mxCell id="vnJfhgnDVNhTZriFCoJO-10" value="" style="ellipse;whiteSpace=wrap;html=1;aspect=fixed;fillColor=#99CCFF;" vertex="1" parent="1">
          <mxGeometry x="280" y="525" width="10" height="10" as="geometry" />
        </mxCell>
        <mxCell id="vnJfhgnDVNhTZriFCoJO-11" value="" style="ellipse;whiteSpace=wrap;html=1;aspect=fixed;fillColor=#99CCFF;" vertex="1" parent="1">
          <mxGeometry x="320" y="525" width="10" height="10" as="geometry" />
        </mxCell>
        <mxCell id="vnJfhgnDVNhTZriFCoJO-12" value="" style="ellipse;whiteSpace=wrap;html=1;aspect=fixed;fillColor=#99CCFF;" vertex="1" parent="1">
          <mxGeometry x="360" y="525" width="10" height="10" as="geometry" />
        </mxCell>
        <mxCell id="vnJfhgnDVNhTZriFCoJO-13" value="" style="endArrow=classic;html=1;rounded=0;strokeWidth=1;endSize=3;" edge="1" parent="1">
          <mxGeometry width="50" height="50" relative="1" as="geometry">
            <mxPoint x="230" y="509.58" as="sourcePoint" />
            <mxPoint x="260" y="510" as="targetPoint" />
          </mxGeometry>
        </mxCell>
        <mxCell id="vnJfhgnDVNhTZriFCoJO-16" value="" style="endArrow=classic;html=1;rounded=0;endSize=3;strokeWidth=1;" edge="1" parent="1">
          <mxGeometry width="50" height="50" relative="1" as="geometry">
            <mxPoint x="270" y="509.58" as="sourcePoint" />
            <mxPoint x="300" y="509.58" as="targetPoint" />
          </mxGeometry>
        </mxCell>
        <mxCell id="vnJfhgnDVNhTZriFCoJO-17" value="" style="endArrow=classic;html=1;rounded=0;endSize=3;strokeWidth=1;" edge="1" parent="1">
          <mxGeometry width="50" height="50" relative="1" as="geometry">
            <mxPoint x="310" y="509.5799999999999" as="sourcePoint" />
            <mxPoint x="340" y="509.5799999999999" as="targetPoint" />
          </mxGeometry>
        </mxCell>
        <mxCell id="vnJfhgnDVNhTZriFCoJO-18" value="" style="endArrow=classic;html=1;rounded=0;endSize=3;strokeWidth=1;" edge="1" parent="1">
          <mxGeometry width="50" height="50" relative="1" as="geometry">
            <mxPoint x="360" y="529.5799999999999" as="sourcePoint" />
            <mxPoint x="330" y="529.5799999999999" as="targetPoint" />
          </mxGeometry>
        </mxCell>
        <mxCell id="vnJfhgnDVNhTZriFCoJO-21" value="" style="endArrow=classic;html=1;rounded=0;endSize=3;strokeWidth=1;" edge="1" parent="1">
          <mxGeometry width="50" height="50" relative="1" as="geometry">
            <mxPoint x="320" y="529.5799999999999" as="sourcePoint" />
            <mxPoint x="290" y="529.5799999999999" as="targetPoint" />
          </mxGeometry>
        </mxCell>
        <mxCell id="vnJfhgnDVNhTZriFCoJO-22" value="" style="endArrow=classic;html=1;rounded=0;endSize=3;strokeWidth=1;" edge="1" parent="1">
          <mxGeometry width="50" height="50" relative="1" as="geometry">
            <mxPoint x="280" y="529.5799999999999" as="sourcePoint" />
            <mxPoint x="250" y="529.5799999999999" as="targetPoint" />
          </mxGeometry>
        </mxCell>
        <mxCell id="vnJfhgnDVNhTZriFCoJO-24" value="" style="curved=1;endArrow=classic;html=1;rounded=0;endSize=3;strokeWidth=1;" edge="1" parent="1" source="vnJfhgnDVNhTZriFCoJO-2">
          <mxGeometry width="50" height="50" relative="1" as="geometry">
            <mxPoint x="260" y="585" as="sourcePoint" />
            <mxPoint x="220" y="515" as="targetPoint" />
            <Array as="points">
              <mxPoint x="220" y="595" />
              <mxPoint x="210" y="535" />
            </Array>
          </mxGeometry>
        </mxCell>
        <mxCell id="vnJfhgnDVNhTZriFCoJO-25" value="" style="curved=1;endArrow=classic;html=1;rounded=0;endSize=3;strokeWidth=1;" edge="1" parent="1">
          <mxGeometry width="50" height="50" relative="1" as="geometry">
            <mxPoint x="270" y="595" as="sourcePoint" />
            <mxPoint x="270" y="515" as="targetPoint" />
            <Array as="points">
              <mxPoint x="270" y="595" />
              <mxPoint x="260" y="535" />
            </Array>
          </mxGeometry>
        </mxCell>
        <mxCell id="vnJfhgnDVNhTZriFCoJO-26" value="" style="curved=1;endArrow=classic;html=1;rounded=0;endSize=3;strokeWidth=1;" edge="1" parent="1">
          <mxGeometry width="50" height="50" relative="1" as="geometry">
            <mxPoint x="310" y="595" as="sourcePoint" />
            <mxPoint x="310" y="515" as="targetPoint" />
            <Array as="points">
              <mxPoint x="310" y="595" />
              <mxPoint x="300" y="535" />
            </Array>
          </mxGeometry>
        </mxCell>
        <mxCell id="vnJfhgnDVNhTZriFCoJO-27" value="" style="curved=1;endArrow=classic;html=1;rounded=0;endSize=3;strokeWidth=1;" edge="1" parent="1">
          <mxGeometry width="50" height="50" relative="1" as="geometry">
            <mxPoint x="350" y="595" as="sourcePoint" />
            <mxPoint x="350" y="515" as="targetPoint" />
            <Array as="points">
              <mxPoint x="350" y="595" />
              <mxPoint x="340" y="535" />
            </Array>
          </mxGeometry>
        </mxCell>
        <mxCell id="vnJfhgnDVNhTZriFCoJO-33" value="" style="endArrow=classic;html=1;rounded=0;endSize=3;strokeWidth=1;entryX=0.5;entryY=1;entryDx=0;entryDy=0;" edge="1" parent="1" target="vnJfhgnDVNhTZriFCoJO-12">
          <mxGeometry width="50" height="50" relative="1" as="geometry">
            <mxPoint x="350" y="595" as="sourcePoint" />
            <mxPoint x="366" y="545" as="targetPoint" />
          </mxGeometry>
        </mxCell>
        <mxCell id="vnJfhgnDVNhTZriFCoJO-34" value="" style="endArrow=classic;html=1;rounded=0;endSize=3;strokeWidth=1;entryX=0.5;entryY=1;entryDx=0;entryDy=0;" edge="1" parent="1">
          <mxGeometry width="50" height="50" relative="1" as="geometry">
            <mxPoint x="310" y="595" as="sourcePoint" />
            <mxPoint x="325" y="535" as="targetPoint" />
          </mxGeometry>
        </mxCell>
        <mxCell id="vnJfhgnDVNhTZriFCoJO-35" value="" style="endArrow=classic;html=1;rounded=0;endSize=3;strokeWidth=1;entryX=0.5;entryY=1;entryDx=0;entryDy=0;" edge="1" parent="1">
          <mxGeometry width="50" height="50" relative="1" as="geometry">
            <mxPoint x="270" y="595" as="sourcePoint" />
            <mxPoint x="285" y="535" as="targetPoint" />
          </mxGeometry>
        </mxCell>
        <mxCell id="vnJfhgnDVNhTZriFCoJO-36" value="" style="endArrow=classic;html=1;rounded=0;endSize=3;strokeWidth=1;entryX=0.5;entryY=1;entryDx=0;entryDy=0;" edge="1" parent="1">
          <mxGeometry width="50" height="50" relative="1" as="geometry">
            <mxPoint x="225" y="595" as="sourcePoint" />
            <mxPoint x="240" y="535" as="targetPoint" />
          </mxGeometry>
        </mxCell>
        <mxCell id="vnJfhgnDVNhTZriFCoJO-37" value="" style="endArrow=classic;html=1;rounded=0;endSize=3;strokeWidth=1;" edge="1" parent="1">
          <mxGeometry width="50" height="50" relative="1" as="geometry">
            <mxPoint x="244.58" y="525" as="sourcePoint" />
            <mxPoint x="245" y="485" as="targetPoint" />
          </mxGeometry>
        </mxCell>
        <mxCell id="vnJfhgnDVNhTZriFCoJO-39" value="" style="endArrow=classic;html=1;rounded=0;endSize=3;strokeWidth=1;" edge="1" parent="1">
          <mxGeometry width="50" height="50" relative="1" as="geometry">
            <mxPoint x="284.5799999999999" y="525" as="sourcePoint" />
            <mxPoint x="285" y="485" as="targetPoint" />
          </mxGeometry>
        </mxCell>
        <mxCell id="vnJfhgnDVNhTZriFCoJO-42" value="" style="endArrow=classic;html=1;rounded=0;endSize=3;strokeWidth=1;" edge="1" parent="1">
          <mxGeometry width="50" height="50" relative="1" as="geometry">
            <mxPoint x="324.5799999999999" y="525" as="sourcePoint" />
            <mxPoint x="325" y="485" as="targetPoint" />
          </mxGeometry>
        </mxCell>
        <mxCell id="vnJfhgnDVNhTZriFCoJO-43" value="" style="endArrow=classic;html=1;rounded=0;endSize=3;strokeWidth=1;" edge="1" parent="1">
          <mxGeometry width="50" height="50" relative="1" as="geometry">
            <mxPoint x="364.5799999999999" y="525" as="sourcePoint" />
            <mxPoint x="365" y="485" as="targetPoint" />
          </mxGeometry>
        </mxCell>
        <mxCell id="vnJfhgnDVNhTZriFCoJO-44" value="" style="endArrow=classic;html=1;rounded=0;endSize=3;strokeWidth=1;" edge="1" parent="1">
          <mxGeometry width="50" height="50" relative="1" as="geometry">
            <mxPoint x="230" y="505" as="sourcePoint" />
            <mxPoint x="240" y="495" as="targetPoint" />
          </mxGeometry>
        </mxCell>
        <mxCell id="vnJfhgnDVNhTZriFCoJO-45" value="" style="endArrow=classic;html=1;rounded=0;endSize=3;strokeWidth=1;" edge="1" parent="1">
          <mxGeometry width="50" height="50" relative="1" as="geometry">
            <mxPoint x="270" y="505" as="sourcePoint" />
            <mxPoint x="280" y="495" as="targetPoint" />
          </mxGeometry>
        </mxCell>
        <mxCell id="vnJfhgnDVNhTZriFCoJO-46" value="" style="endArrow=classic;html=1;rounded=0;endSize=3;strokeWidth=1;" edge="1" parent="1">
          <mxGeometry width="50" height="50" relative="1" as="geometry">
            <mxPoint x="310" y="505" as="sourcePoint" />
            <mxPoint x="320" y="495" as="targetPoint" />
          </mxGeometry>
        </mxCell>
        <mxCell id="vnJfhgnDVNhTZriFCoJO-48" value="" style="endArrow=classic;html=1;rounded=0;endSize=3;strokeWidth=1;" edge="1" parent="1">
          <mxGeometry width="50" height="50" relative="1" as="geometry">
            <mxPoint x="350" y="505" as="sourcePoint" />
            <mxPoint x="360" y="495" as="targetPoint" />
          </mxGeometry>
        </mxCell>
        <mxCell id="vnJfhgnDVNhTZriFCoJO-49" value="" style="rounded=0;whiteSpace=wrap;html=1;fillColor=#FFFFCC;" vertex="1" parent="1">
          <mxGeometry x="234" y="455" width="16" height="30" as="geometry" />
        </mxCell>
        <mxCell id="vnJfhgnDVNhTZriFCoJO-51" value="" style="rounded=0;whiteSpace=wrap;html=1;fillColor=#FFFFCC;" vertex="1" parent="1">
          <mxGeometry x="277" y="455" width="16" height="30" as="geometry" />
        </mxCell>
        <mxCell id="vnJfhgnDVNhTZriFCoJO-52" value="" style="rounded=0;whiteSpace=wrap;html=1;fillColor=#FFFFCC;" vertex="1" parent="1">
          <mxGeometry x="317" y="455" width="16" height="30" as="geometry" />
        </mxCell>
        <mxCell id="vnJfhgnDVNhTZriFCoJO-54" value="" style="rounded=0;whiteSpace=wrap;html=1;fillColor=#FFFFCC;" vertex="1" parent="1">
          <mxGeometry x="357" y="455" width="16" height="30" as="geometry" />
        </mxCell>
        <mxCell id="vnJfhgnDVNhTZriFCoJO-55" value="" style="rounded=1;whiteSpace=wrap;html=1;" vertex="1" parent="1">
          <mxGeometry x="410" y="437.5" width="240" height="145" as="geometry" />
        </mxCell>
        <mxCell id="vnJfhgnDVNhTZriFCoJO-69" value="" style="shape=table;startSize=0;container=1;collapsible=0;childLayout=tableLayout;fillColor=#FFFFFF;strokeColor=#000066;" vertex="1" parent="1">
          <mxGeometry x="420" y="455" width="90" height="110" as="geometry" />
        </mxCell>
        <mxCell id="vnJfhgnDVNhTZriFCoJO-70" value="" style="shape=partialRectangle;collapsible=0;dropTarget=0;pointerEvents=0;fillColor=none;top=0;left=0;bottom=0;right=0;points=[[0,0.5],[1,0.5]];portConstraint=eastwest;" vertex="1" parent="vnJfhgnDVNhTZriFCoJO-69">
          <mxGeometry width="90" height="11" as="geometry" />
        </mxCell>
        <mxCell id="vnJfhgnDVNhTZriFCoJO-71" value="" style="shape=partialRectangle;html=1;whiteSpace=wrap;connectable=0;overflow=hidden;fillColor=#ffe6cc;top=0;left=0;bottom=0;right=0;pointerEvents=1;strokeColor=#000000;" vertex="1" parent="vnJfhgnDVNhTZriFCoJO-70">
          <mxGeometry width="12" height="11" as="geometry">
            <mxRectangle width="12" height="11" as="alternateBounds" />
          </mxGeometry>
        </mxCell>
        <mxCell id="vnJfhgnDVNhTZriFCoJO-72" value="" style="shape=partialRectangle;html=1;whiteSpace=wrap;connectable=0;overflow=hidden;fillColor=#dae8fc;top=0;left=0;bottom=0;right=0;pointerEvents=1;strokeColor=#6c8ebf;" vertex="1" parent="vnJfhgnDVNhTZriFCoJO-70">
          <mxGeometry x="12" width="13" height="11" as="geometry">
            <mxRectangle width="13" height="11" as="alternateBounds" />
          </mxGeometry>
        </mxCell>
        <mxCell id="vnJfhgnDVNhTZriFCoJO-73" value="" style="shape=partialRectangle;html=1;whiteSpace=wrap;connectable=0;overflow=hidden;fillColor=#60a917;top=0;left=0;bottom=0;right=0;pointerEvents=1;fontColor=#ffffff;strokeColor=#2D7600;" vertex="1" parent="vnJfhgnDVNhTZriFCoJO-70">
          <mxGeometry x="25" width="14" height="11" as="geometry">
            <mxRectangle width="14" height="11" as="alternateBounds" />
          </mxGeometry>
        </mxCell>
        <mxCell id="vnJfhgnDVNhTZriFCoJO-74" value="" style="shape=partialRectangle;html=1;whiteSpace=wrap;connectable=0;overflow=hidden;fillColor=none;top=0;left=0;bottom=0;right=0;pointerEvents=1;" vertex="1" parent="vnJfhgnDVNhTZriFCoJO-70">
          <mxGeometry x="39" width="12" height="11" as="geometry">
            <mxRectangle width="12" height="11" as="alternateBounds" />
          </mxGeometry>
        </mxCell>
        <mxCell id="vnJfhgnDVNhTZriFCoJO-75" value="" style="shape=partialRectangle;html=1;whiteSpace=wrap;connectable=0;overflow=hidden;fillColor=none;top=0;left=0;bottom=0;right=0;pointerEvents=1;" vertex="1" parent="vnJfhgnDVNhTZriFCoJO-70">
          <mxGeometry x="51" width="14" height="11" as="geometry">
            <mxRectangle width="14" height="11" as="alternateBounds" />
          </mxGeometry>
        </mxCell>
        <mxCell id="vnJfhgnDVNhTZriFCoJO-76" value="" style="shape=partialRectangle;html=1;whiteSpace=wrap;connectable=0;overflow=hidden;fillColor=none;top=0;left=0;bottom=0;right=0;pointerEvents=1;" vertex="1" parent="vnJfhgnDVNhTZriFCoJO-70">
          <mxGeometry x="65" width="13" height="11" as="geometry">
            <mxRectangle width="13" height="11" as="alternateBounds" />
          </mxGeometry>
        </mxCell>
        <mxCell id="vnJfhgnDVNhTZriFCoJO-77" value="" style="shape=partialRectangle;html=1;whiteSpace=wrap;connectable=0;overflow=hidden;fillColor=none;top=0;left=0;bottom=0;right=0;pointerEvents=1;" vertex="1" parent="vnJfhgnDVNhTZriFCoJO-70">
          <mxGeometry x="78" width="12" height="11" as="geometry">
            <mxRectangle width="12" height="11" as="alternateBounds" />
          </mxGeometry>
        </mxCell>
        <mxCell id="vnJfhgnDVNhTZriFCoJO-78" value="" style="shape=partialRectangle;collapsible=0;dropTarget=0;pointerEvents=0;fillColor=none;top=0;left=0;bottom=0;right=0;points=[[0,0.5],[1,0.5]];portConstraint=eastwest;strokeColor=#FFCCCC;" vertex="1" parent="vnJfhgnDVNhTZriFCoJO-69">
          <mxGeometry y="11" width="90" height="11" as="geometry" />
        </mxCell>
        <mxCell id="vnJfhgnDVNhTZriFCoJO-79" value="" style="shape=partialRectangle;html=1;whiteSpace=wrap;connectable=0;overflow=hidden;fillColor=#ffe6cc;top=0;left=0;bottom=0;right=0;pointerEvents=1;strokeColor=#000000;" vertex="1" parent="vnJfhgnDVNhTZriFCoJO-78">
          <mxGeometry width="12" height="11" as="geometry">
            <mxRectangle width="12" height="11" as="alternateBounds" />
          </mxGeometry>
        </mxCell>
        <mxCell id="vnJfhgnDVNhTZriFCoJO-80" value="" style="shape=partialRectangle;html=1;whiteSpace=wrap;connectable=0;overflow=hidden;fillColor=#dae8fc;top=0;left=0;bottom=0;right=0;pointerEvents=1;strokeColor=#6c8ebf;" vertex="1" parent="vnJfhgnDVNhTZriFCoJO-78">
          <mxGeometry x="12" width="13" height="11" as="geometry">
            <mxRectangle width="13" height="11" as="alternateBounds" />
          </mxGeometry>
        </mxCell>
        <mxCell id="vnJfhgnDVNhTZriFCoJO-81" value="" style="shape=partialRectangle;html=1;whiteSpace=wrap;connectable=0;overflow=hidden;fillColor=#60a917;top=0;left=0;bottom=0;right=0;pointerEvents=1;fontColor=#ffffff;strokeColor=#2D7600;" vertex="1" parent="vnJfhgnDVNhTZriFCoJO-78">
          <mxGeometry x="25" width="14" height="11" as="geometry">
            <mxRectangle width="14" height="11" as="alternateBounds" />
          </mxGeometry>
        </mxCell>
        <mxCell id="vnJfhgnDVNhTZriFCoJO-82" value="" style="shape=partialRectangle;html=1;whiteSpace=wrap;connectable=0;overflow=hidden;fillColor=none;top=0;left=0;bottom=0;right=0;pointerEvents=1;" vertex="1" parent="vnJfhgnDVNhTZriFCoJO-78">
          <mxGeometry x="39" width="12" height="11" as="geometry">
            <mxRectangle width="12" height="11" as="alternateBounds" />
          </mxGeometry>
        </mxCell>
        <mxCell id="vnJfhgnDVNhTZriFCoJO-83" value="" style="shape=partialRectangle;html=1;whiteSpace=wrap;connectable=0;overflow=hidden;fillColor=none;top=0;left=0;bottom=0;right=0;pointerEvents=1;" vertex="1" parent="vnJfhgnDVNhTZriFCoJO-78">
          <mxGeometry x="51" width="14" height="11" as="geometry">
            <mxRectangle width="14" height="11" as="alternateBounds" />
          </mxGeometry>
        </mxCell>
        <mxCell id="vnJfhgnDVNhTZriFCoJO-84" value="" style="shape=partialRectangle;html=1;whiteSpace=wrap;connectable=0;overflow=hidden;fillColor=none;top=0;left=0;bottom=0;right=0;pointerEvents=1;" vertex="1" parent="vnJfhgnDVNhTZriFCoJO-78">
          <mxGeometry x="65" width="13" height="11" as="geometry">
            <mxRectangle width="13" height="11" as="alternateBounds" />
          </mxGeometry>
        </mxCell>
        <mxCell id="vnJfhgnDVNhTZriFCoJO-85" value="" style="shape=partialRectangle;html=1;whiteSpace=wrap;connectable=0;overflow=hidden;fillColor=none;top=0;left=0;bottom=0;right=0;pointerEvents=1;" vertex="1" parent="vnJfhgnDVNhTZriFCoJO-78">
          <mxGeometry x="78" width="12" height="11" as="geometry">
            <mxRectangle width="12" height="11" as="alternateBounds" />
          </mxGeometry>
        </mxCell>
        <mxCell id="vnJfhgnDVNhTZriFCoJO-86" value="" style="shape=partialRectangle;collapsible=0;dropTarget=0;pointerEvents=0;fillColor=none;top=0;left=0;bottom=0;right=0;points=[[0,0.5],[1,0.5]];portConstraint=eastwest;" vertex="1" parent="vnJfhgnDVNhTZriFCoJO-69">
          <mxGeometry y="22" width="90" height="10" as="geometry" />
        </mxCell>
        <mxCell id="vnJfhgnDVNhTZriFCoJO-87" value="" style="shape=partialRectangle;html=1;whiteSpace=wrap;connectable=0;overflow=hidden;fillColor=#ffe6cc;top=0;left=0;bottom=0;right=0;pointerEvents=1;strokeColor=#000000;" vertex="1" parent="vnJfhgnDVNhTZriFCoJO-86">
          <mxGeometry width="12" height="10" as="geometry">
            <mxRectangle width="12" height="10" as="alternateBounds" />
          </mxGeometry>
        </mxCell>
        <mxCell id="vnJfhgnDVNhTZriFCoJO-88" value="" style="shape=partialRectangle;html=1;whiteSpace=wrap;connectable=0;overflow=hidden;fillColor=#dae8fc;top=0;left=0;bottom=0;right=0;pointerEvents=1;strokeColor=#6c8ebf;" vertex="1" parent="vnJfhgnDVNhTZriFCoJO-86">
          <mxGeometry x="12" width="13" height="10" as="geometry">
            <mxRectangle width="13" height="10" as="alternateBounds" />
          </mxGeometry>
        </mxCell>
        <mxCell id="vnJfhgnDVNhTZriFCoJO-89" value="" style="shape=partialRectangle;html=1;whiteSpace=wrap;connectable=0;overflow=hidden;fillColor=#60a917;top=0;left=0;bottom=0;right=0;pointerEvents=1;fontColor=#ffffff;strokeColor=#2D7600;" vertex="1" parent="vnJfhgnDVNhTZriFCoJO-86">
          <mxGeometry x="25" width="14" height="10" as="geometry">
            <mxRectangle width="14" height="10" as="alternateBounds" />
          </mxGeometry>
        </mxCell>
        <mxCell id="vnJfhgnDVNhTZriFCoJO-90" value="" style="shape=partialRectangle;html=1;whiteSpace=wrap;connectable=0;overflow=hidden;fillColor=none;top=0;left=0;bottom=0;right=0;pointerEvents=1;" vertex="1" parent="vnJfhgnDVNhTZriFCoJO-86">
          <mxGeometry x="39" width="12" height="10" as="geometry">
            <mxRectangle width="12" height="10" as="alternateBounds" />
          </mxGeometry>
        </mxCell>
        <mxCell id="vnJfhgnDVNhTZriFCoJO-91" value="" style="shape=partialRectangle;html=1;whiteSpace=wrap;connectable=0;overflow=hidden;fillColor=none;top=0;left=0;bottom=0;right=0;pointerEvents=1;" vertex="1" parent="vnJfhgnDVNhTZriFCoJO-86">
          <mxGeometry x="51" width="14" height="10" as="geometry">
            <mxRectangle width="14" height="10" as="alternateBounds" />
          </mxGeometry>
        </mxCell>
        <mxCell id="vnJfhgnDVNhTZriFCoJO-92" value="" style="shape=partialRectangle;html=1;whiteSpace=wrap;connectable=0;overflow=hidden;fillColor=none;top=0;left=0;bottom=0;right=0;pointerEvents=1;" vertex="1" parent="vnJfhgnDVNhTZriFCoJO-86">
          <mxGeometry x="65" width="13" height="10" as="geometry">
            <mxRectangle width="13" height="10" as="alternateBounds" />
          </mxGeometry>
        </mxCell>
        <mxCell id="vnJfhgnDVNhTZriFCoJO-93" value="" style="shape=partialRectangle;html=1;whiteSpace=wrap;connectable=0;overflow=hidden;fillColor=none;top=0;left=0;bottom=0;right=0;pointerEvents=1;" vertex="1" parent="vnJfhgnDVNhTZriFCoJO-86">
          <mxGeometry x="78" width="12" height="10" as="geometry">
            <mxRectangle width="12" height="10" as="alternateBounds" />
          </mxGeometry>
        </mxCell>
        <mxCell id="vnJfhgnDVNhTZriFCoJO-94" value="" style="shape=partialRectangle;collapsible=0;dropTarget=0;pointerEvents=0;fillColor=none;top=0;left=0;bottom=0;right=0;points=[[0,0.5],[1,0.5]];portConstraint=eastwest;" vertex="1" parent="vnJfhgnDVNhTZriFCoJO-69">
          <mxGeometry y="32" width="90" height="11" as="geometry" />
        </mxCell>
        <mxCell id="vnJfhgnDVNhTZriFCoJO-95" value="" style="shape=partialRectangle;html=1;whiteSpace=wrap;connectable=0;overflow=hidden;fillColor=#ffe6cc;top=0;left=0;bottom=0;right=0;pointerEvents=1;strokeColor=#d79b00;" vertex="1" parent="vnJfhgnDVNhTZriFCoJO-94">
          <mxGeometry width="12" height="11" as="geometry">
            <mxRectangle width="12" height="11" as="alternateBounds" />
          </mxGeometry>
        </mxCell>
        <mxCell id="vnJfhgnDVNhTZriFCoJO-96" value="" style="shape=partialRectangle;html=1;whiteSpace=wrap;connectable=0;overflow=hidden;fillColor=#dae8fc;top=0;left=0;bottom=0;right=0;pointerEvents=1;strokeColor=#6c8ebf;" vertex="1" parent="vnJfhgnDVNhTZriFCoJO-94">
          <mxGeometry x="12" width="13" height="11" as="geometry">
            <mxRectangle width="13" height="11" as="alternateBounds" />
          </mxGeometry>
        </mxCell>
        <mxCell id="vnJfhgnDVNhTZriFCoJO-97" value="" style="shape=partialRectangle;html=1;whiteSpace=wrap;connectable=0;overflow=hidden;fillColor=#60a917;top=0;left=0;bottom=0;right=0;pointerEvents=1;fontColor=#ffffff;strokeColor=#2D7600;" vertex="1" parent="vnJfhgnDVNhTZriFCoJO-94">
          <mxGeometry x="25" width="14" height="11" as="geometry">
            <mxRectangle width="14" height="11" as="alternateBounds" />
          </mxGeometry>
        </mxCell>
        <mxCell id="vnJfhgnDVNhTZriFCoJO-98" value="" style="shape=partialRectangle;html=1;whiteSpace=wrap;connectable=0;overflow=hidden;fillColor=none;top=0;left=0;bottom=0;right=0;pointerEvents=1;" vertex="1" parent="vnJfhgnDVNhTZriFCoJO-94">
          <mxGeometry x="39" width="12" height="11" as="geometry">
            <mxRectangle width="12" height="11" as="alternateBounds" />
          </mxGeometry>
        </mxCell>
        <mxCell id="vnJfhgnDVNhTZriFCoJO-99" value="" style="shape=partialRectangle;html=1;whiteSpace=wrap;connectable=0;overflow=hidden;fillColor=none;top=0;left=0;bottom=0;right=0;pointerEvents=1;" vertex="1" parent="vnJfhgnDVNhTZriFCoJO-94">
          <mxGeometry x="51" width="14" height="11" as="geometry">
            <mxRectangle width="14" height="11" as="alternateBounds" />
          </mxGeometry>
        </mxCell>
        <mxCell id="vnJfhgnDVNhTZriFCoJO-100" value="" style="shape=partialRectangle;html=1;whiteSpace=wrap;connectable=0;overflow=hidden;fillColor=none;top=0;left=0;bottom=0;right=0;pointerEvents=1;" vertex="1" parent="vnJfhgnDVNhTZriFCoJO-94">
          <mxGeometry x="65" width="13" height="11" as="geometry">
            <mxRectangle width="13" height="11" as="alternateBounds" />
          </mxGeometry>
        </mxCell>
        <mxCell id="vnJfhgnDVNhTZriFCoJO-101" value="" style="shape=partialRectangle;html=1;whiteSpace=wrap;connectable=0;overflow=hidden;fillColor=none;top=0;left=0;bottom=0;right=0;pointerEvents=1;" vertex="1" parent="vnJfhgnDVNhTZriFCoJO-94">
          <mxGeometry x="78" width="12" height="11" as="geometry">
            <mxRectangle width="12" height="11" as="alternateBounds" />
          </mxGeometry>
        </mxCell>
        <mxCell id="vnJfhgnDVNhTZriFCoJO-102" value="" style="shape=partialRectangle;collapsible=0;dropTarget=0;pointerEvents=0;fillColor=none;top=0;left=0;bottom=0;right=0;points=[[0,0.5],[1,0.5]];portConstraint=eastwest;" vertex="1" parent="vnJfhgnDVNhTZriFCoJO-69">
          <mxGeometry y="43" width="90" height="13" as="geometry" />
        </mxCell>
        <mxCell id="vnJfhgnDVNhTZriFCoJO-103" value="" style="shape=partialRectangle;html=1;whiteSpace=wrap;connectable=0;overflow=hidden;fillColor=#ffe6cc;top=0;left=0;bottom=0;right=0;pointerEvents=1;strokeColor=#d79b00;" vertex="1" parent="vnJfhgnDVNhTZriFCoJO-102">
          <mxGeometry width="12" height="13" as="geometry">
            <mxRectangle width="12" height="13" as="alternateBounds" />
          </mxGeometry>
        </mxCell>
        <mxCell id="vnJfhgnDVNhTZriFCoJO-104" value="" style="shape=partialRectangle;html=1;whiteSpace=wrap;connectable=0;overflow=hidden;fillColor=#dae8fc;top=0;left=0;bottom=0;right=0;pointerEvents=1;strokeColor=#6c8ebf;" vertex="1" parent="vnJfhgnDVNhTZriFCoJO-102">
          <mxGeometry x="12" width="13" height="13" as="geometry">
            <mxRectangle width="13" height="13" as="alternateBounds" />
          </mxGeometry>
        </mxCell>
        <mxCell id="vnJfhgnDVNhTZriFCoJO-105" value="" style="shape=partialRectangle;html=1;whiteSpace=wrap;connectable=0;overflow=hidden;fillColor=#60a917;top=0;left=0;bottom=0;right=0;pointerEvents=1;fontColor=#ffffff;strokeColor=#2D7600;" vertex="1" parent="vnJfhgnDVNhTZriFCoJO-102">
          <mxGeometry x="25" width="14" height="13" as="geometry">
            <mxRectangle width="14" height="13" as="alternateBounds" />
          </mxGeometry>
        </mxCell>
        <mxCell id="vnJfhgnDVNhTZriFCoJO-106" value="" style="shape=partialRectangle;html=1;whiteSpace=wrap;connectable=0;overflow=hidden;fillColor=none;top=0;left=0;bottom=0;right=0;pointerEvents=1;" vertex="1" parent="vnJfhgnDVNhTZriFCoJO-102">
          <mxGeometry x="39" width="12" height="13" as="geometry">
            <mxRectangle width="12" height="13" as="alternateBounds" />
          </mxGeometry>
        </mxCell>
        <mxCell id="vnJfhgnDVNhTZriFCoJO-107" value="" style="shape=partialRectangle;html=1;whiteSpace=wrap;connectable=0;overflow=hidden;fillColor=none;top=0;left=0;bottom=0;right=0;pointerEvents=1;" vertex="1" parent="vnJfhgnDVNhTZriFCoJO-102">
          <mxGeometry x="51" width="14" height="13" as="geometry">
            <mxRectangle width="14" height="13" as="alternateBounds" />
          </mxGeometry>
        </mxCell>
        <mxCell id="vnJfhgnDVNhTZriFCoJO-108" value="" style="shape=partialRectangle;html=1;whiteSpace=wrap;connectable=0;overflow=hidden;fillColor=none;top=0;left=0;bottom=0;right=0;pointerEvents=1;" vertex="1" parent="vnJfhgnDVNhTZriFCoJO-102">
          <mxGeometry x="65" width="13" height="13" as="geometry">
            <mxRectangle width="13" height="13" as="alternateBounds" />
          </mxGeometry>
        </mxCell>
        <mxCell id="vnJfhgnDVNhTZriFCoJO-109" value="" style="shape=partialRectangle;html=1;whiteSpace=wrap;connectable=0;overflow=hidden;fillColor=none;top=0;left=0;bottom=0;right=0;pointerEvents=1;" vertex="1" parent="vnJfhgnDVNhTZriFCoJO-102">
          <mxGeometry x="78" width="12" height="13" as="geometry">
            <mxRectangle width="12" height="13" as="alternateBounds" />
          </mxGeometry>
        </mxCell>
        <mxCell id="vnJfhgnDVNhTZriFCoJO-110" value="" style="shape=partialRectangle;collapsible=0;dropTarget=0;pointerEvents=0;fillColor=none;top=0;left=0;bottom=0;right=0;points=[[0,0.5],[1,0.5]];portConstraint=eastwest;" vertex="1" parent="vnJfhgnDVNhTZriFCoJO-69">
          <mxGeometry y="56" width="90" height="11" as="geometry" />
        </mxCell>
        <mxCell id="vnJfhgnDVNhTZriFCoJO-111" value="" style="shape=partialRectangle;html=1;whiteSpace=wrap;connectable=0;overflow=hidden;fillColor=#ffe6cc;top=0;left=0;bottom=0;right=0;pointerEvents=1;strokeColor=#d79b00;" vertex="1" parent="vnJfhgnDVNhTZriFCoJO-110">
          <mxGeometry width="12" height="11" as="geometry">
            <mxRectangle width="12" height="11" as="alternateBounds" />
          </mxGeometry>
        </mxCell>
        <mxCell id="vnJfhgnDVNhTZriFCoJO-112" value="" style="shape=partialRectangle;html=1;whiteSpace=wrap;connectable=0;overflow=hidden;fillColor=#dae8fc;top=0;left=0;bottom=0;right=0;pointerEvents=1;strokeColor=#6c8ebf;" vertex="1" parent="vnJfhgnDVNhTZriFCoJO-110">
          <mxGeometry x="12" width="13" height="11" as="geometry">
            <mxRectangle width="13" height="11" as="alternateBounds" />
          </mxGeometry>
        </mxCell>
        <mxCell id="vnJfhgnDVNhTZriFCoJO-113" value="" style="shape=partialRectangle;html=1;whiteSpace=wrap;connectable=0;overflow=hidden;fillColor=#60a917;top=0;left=0;bottom=0;right=0;pointerEvents=1;fontColor=#ffffff;strokeColor=#2D7600;" vertex="1" parent="vnJfhgnDVNhTZriFCoJO-110">
          <mxGeometry x="25" width="14" height="11" as="geometry">
            <mxRectangle width="14" height="11" as="alternateBounds" />
          </mxGeometry>
        </mxCell>
        <mxCell id="vnJfhgnDVNhTZriFCoJO-114" value="" style="shape=partialRectangle;html=1;whiteSpace=wrap;connectable=0;overflow=hidden;fillColor=none;top=0;left=0;bottom=0;right=0;pointerEvents=1;" vertex="1" parent="vnJfhgnDVNhTZriFCoJO-110">
          <mxGeometry x="39" width="12" height="11" as="geometry">
            <mxRectangle width="12" height="11" as="alternateBounds" />
          </mxGeometry>
        </mxCell>
        <mxCell id="vnJfhgnDVNhTZriFCoJO-115" value="" style="shape=partialRectangle;html=1;whiteSpace=wrap;connectable=0;overflow=hidden;fillColor=none;top=0;left=0;bottom=0;right=0;pointerEvents=1;" vertex="1" parent="vnJfhgnDVNhTZriFCoJO-110">
          <mxGeometry x="51" width="14" height="11" as="geometry">
            <mxRectangle width="14" height="11" as="alternateBounds" />
          </mxGeometry>
        </mxCell>
        <mxCell id="vnJfhgnDVNhTZriFCoJO-116" value="" style="shape=partialRectangle;html=1;whiteSpace=wrap;connectable=0;overflow=hidden;fillColor=none;top=0;left=0;bottom=0;right=0;pointerEvents=1;" vertex="1" parent="vnJfhgnDVNhTZriFCoJO-110">
          <mxGeometry x="65" width="13" height="11" as="geometry">
            <mxRectangle width="13" height="11" as="alternateBounds" />
          </mxGeometry>
        </mxCell>
        <mxCell id="vnJfhgnDVNhTZriFCoJO-117" value="" style="shape=partialRectangle;html=1;whiteSpace=wrap;connectable=0;overflow=hidden;fillColor=none;top=0;left=0;bottom=0;right=0;pointerEvents=1;" vertex="1" parent="vnJfhgnDVNhTZriFCoJO-110">
          <mxGeometry x="78" width="12" height="11" as="geometry">
            <mxRectangle width="12" height="11" as="alternateBounds" />
          </mxGeometry>
        </mxCell>
        <mxCell id="vnJfhgnDVNhTZriFCoJO-118" value="" style="shape=partialRectangle;collapsible=0;dropTarget=0;pointerEvents=0;fillColor=none;top=0;left=0;bottom=0;right=0;points=[[0,0.5],[1,0.5]];portConstraint=eastwest;" vertex="1" parent="vnJfhgnDVNhTZriFCoJO-69">
          <mxGeometry y="67" width="90" height="11" as="geometry" />
        </mxCell>
        <mxCell id="vnJfhgnDVNhTZriFCoJO-119" value="" style="shape=partialRectangle;html=1;whiteSpace=wrap;connectable=0;overflow=hidden;fillColor=#ffe6cc;top=0;left=0;bottom=0;right=0;pointerEvents=1;strokeColor=#d79b00;" vertex="1" parent="vnJfhgnDVNhTZriFCoJO-118">
          <mxGeometry width="12" height="11" as="geometry">
            <mxRectangle width="12" height="11" as="alternateBounds" />
          </mxGeometry>
        </mxCell>
        <mxCell id="vnJfhgnDVNhTZriFCoJO-120" value="" style="shape=partialRectangle;html=1;whiteSpace=wrap;connectable=0;overflow=hidden;fillColor=#dae8fc;top=0;left=0;bottom=0;right=0;pointerEvents=1;strokeColor=#6c8ebf;" vertex="1" parent="vnJfhgnDVNhTZriFCoJO-118">
          <mxGeometry x="12" width="13" height="11" as="geometry">
            <mxRectangle width="13" height="11" as="alternateBounds" />
          </mxGeometry>
        </mxCell>
        <mxCell id="vnJfhgnDVNhTZriFCoJO-121" value="" style="shape=partialRectangle;html=1;whiteSpace=wrap;connectable=0;overflow=hidden;fillColor=#60a917;top=0;left=0;bottom=0;right=0;pointerEvents=1;fontColor=#ffffff;strokeColor=#2D7600;" vertex="1" parent="vnJfhgnDVNhTZriFCoJO-118">
          <mxGeometry x="25" width="14" height="11" as="geometry">
            <mxRectangle width="14" height="11" as="alternateBounds" />
          </mxGeometry>
        </mxCell>
        <mxCell id="vnJfhgnDVNhTZriFCoJO-122" value="" style="shape=partialRectangle;html=1;whiteSpace=wrap;connectable=0;overflow=hidden;fillColor=none;top=0;left=0;bottom=0;right=0;pointerEvents=1;" vertex="1" parent="vnJfhgnDVNhTZriFCoJO-118">
          <mxGeometry x="39" width="12" height="11" as="geometry">
            <mxRectangle width="12" height="11" as="alternateBounds" />
          </mxGeometry>
        </mxCell>
        <mxCell id="vnJfhgnDVNhTZriFCoJO-123" value="" style="shape=partialRectangle;html=1;whiteSpace=wrap;connectable=0;overflow=hidden;fillColor=none;top=0;left=0;bottom=0;right=0;pointerEvents=1;" vertex="1" parent="vnJfhgnDVNhTZriFCoJO-118">
          <mxGeometry x="51" width="14" height="11" as="geometry">
            <mxRectangle width="14" height="11" as="alternateBounds" />
          </mxGeometry>
        </mxCell>
        <mxCell id="vnJfhgnDVNhTZriFCoJO-124" value="" style="shape=partialRectangle;html=1;whiteSpace=wrap;connectable=0;overflow=hidden;fillColor=none;top=0;left=0;bottom=0;right=0;pointerEvents=1;" vertex="1" parent="vnJfhgnDVNhTZriFCoJO-118">
          <mxGeometry x="65" width="13" height="11" as="geometry">
            <mxRectangle width="13" height="11" as="alternateBounds" />
          </mxGeometry>
        </mxCell>
        <mxCell id="vnJfhgnDVNhTZriFCoJO-125" value="" style="shape=partialRectangle;html=1;whiteSpace=wrap;connectable=0;overflow=hidden;fillColor=none;top=0;left=0;bottom=0;right=0;pointerEvents=1;" vertex="1" parent="vnJfhgnDVNhTZriFCoJO-118">
          <mxGeometry x="78" width="12" height="11" as="geometry">
            <mxRectangle width="12" height="11" as="alternateBounds" />
          </mxGeometry>
        </mxCell>
        <mxCell id="vnJfhgnDVNhTZriFCoJO-126" value="" style="shape=partialRectangle;collapsible=0;dropTarget=0;pointerEvents=0;fillColor=none;top=0;left=0;bottom=0;right=0;points=[[0,0.5],[1,0.5]];portConstraint=eastwest;" vertex="1" parent="vnJfhgnDVNhTZriFCoJO-69">
          <mxGeometry y="78" width="90" height="10" as="geometry" />
        </mxCell>
        <mxCell id="vnJfhgnDVNhTZriFCoJO-127" value="" style="shape=partialRectangle;html=1;whiteSpace=wrap;connectable=0;overflow=hidden;fillColor=#ffe6cc;top=0;left=0;bottom=0;right=0;pointerEvents=1;strokeColor=#d79b00;" vertex="1" parent="vnJfhgnDVNhTZriFCoJO-126">
          <mxGeometry width="12" height="10" as="geometry">
            <mxRectangle width="12" height="10" as="alternateBounds" />
          </mxGeometry>
        </mxCell>
        <mxCell id="vnJfhgnDVNhTZriFCoJO-128" value="" style="shape=partialRectangle;html=1;whiteSpace=wrap;connectable=0;overflow=hidden;fillColor=#dae8fc;top=0;left=0;bottom=0;right=0;pointerEvents=1;strokeColor=#6c8ebf;" vertex="1" parent="vnJfhgnDVNhTZriFCoJO-126">
          <mxGeometry x="12" width="13" height="10" as="geometry">
            <mxRectangle width="13" height="10" as="alternateBounds" />
          </mxGeometry>
        </mxCell>
        <mxCell id="vnJfhgnDVNhTZriFCoJO-129" value="" style="shape=partialRectangle;html=1;whiteSpace=wrap;connectable=0;overflow=hidden;fillColor=#60a917;top=0;left=0;bottom=0;right=0;pointerEvents=1;fontColor=#ffffff;strokeColor=#2D7600;" vertex="1" parent="vnJfhgnDVNhTZriFCoJO-126">
          <mxGeometry x="25" width="14" height="10" as="geometry">
            <mxRectangle width="14" height="10" as="alternateBounds" />
          </mxGeometry>
        </mxCell>
        <mxCell id="vnJfhgnDVNhTZriFCoJO-130" value="" style="shape=partialRectangle;html=1;whiteSpace=wrap;connectable=0;overflow=hidden;fillColor=none;top=0;left=0;bottom=0;right=0;pointerEvents=1;" vertex="1" parent="vnJfhgnDVNhTZriFCoJO-126">
          <mxGeometry x="39" width="12" height="10" as="geometry">
            <mxRectangle width="12" height="10" as="alternateBounds" />
          </mxGeometry>
        </mxCell>
        <mxCell id="vnJfhgnDVNhTZriFCoJO-131" value="" style="shape=partialRectangle;html=1;whiteSpace=wrap;connectable=0;overflow=hidden;fillColor=none;top=0;left=0;bottom=0;right=0;pointerEvents=1;" vertex="1" parent="vnJfhgnDVNhTZriFCoJO-126">
          <mxGeometry x="51" width="14" height="10" as="geometry">
            <mxRectangle width="14" height="10" as="alternateBounds" />
          </mxGeometry>
        </mxCell>
        <mxCell id="vnJfhgnDVNhTZriFCoJO-132" value="" style="shape=partialRectangle;html=1;whiteSpace=wrap;connectable=0;overflow=hidden;fillColor=none;top=0;left=0;bottom=0;right=0;pointerEvents=1;" vertex="1" parent="vnJfhgnDVNhTZriFCoJO-126">
          <mxGeometry x="65" width="13" height="10" as="geometry">
            <mxRectangle width="13" height="10" as="alternateBounds" />
          </mxGeometry>
        </mxCell>
        <mxCell id="vnJfhgnDVNhTZriFCoJO-133" value="" style="shape=partialRectangle;html=1;whiteSpace=wrap;connectable=0;overflow=hidden;fillColor=none;top=0;left=0;bottom=0;right=0;pointerEvents=1;" vertex="1" parent="vnJfhgnDVNhTZriFCoJO-126">
          <mxGeometry x="78" width="12" height="10" as="geometry">
            <mxRectangle width="12" height="10" as="alternateBounds" />
          </mxGeometry>
        </mxCell>
        <mxCell id="vnJfhgnDVNhTZriFCoJO-134" value="" style="shape=partialRectangle;collapsible=0;dropTarget=0;pointerEvents=0;fillColor=none;top=0;left=0;bottom=0;right=0;points=[[0,0.5],[1,0.5]];portConstraint=eastwest;" vertex="1" parent="vnJfhgnDVNhTZriFCoJO-69">
          <mxGeometry y="88" width="90" height="11" as="geometry" />
        </mxCell>
        <mxCell id="vnJfhgnDVNhTZriFCoJO-135" value="" style="shape=partialRectangle;html=1;whiteSpace=wrap;connectable=0;overflow=hidden;fillColor=#ffe6cc;top=0;left=0;bottom=0;right=0;pointerEvents=1;strokeColor=#d79b00;" vertex="1" parent="vnJfhgnDVNhTZriFCoJO-134">
          <mxGeometry width="12" height="11" as="geometry">
            <mxRectangle width="12" height="11" as="alternateBounds" />
          </mxGeometry>
        </mxCell>
        <mxCell id="vnJfhgnDVNhTZriFCoJO-136" value="" style="shape=partialRectangle;html=1;whiteSpace=wrap;connectable=0;overflow=hidden;fillColor=#dae8fc;top=0;left=0;bottom=0;right=0;pointerEvents=1;strokeColor=#6c8ebf;" vertex="1" parent="vnJfhgnDVNhTZriFCoJO-134">
          <mxGeometry x="12" width="13" height="11" as="geometry">
            <mxRectangle width="13" height="11" as="alternateBounds" />
          </mxGeometry>
        </mxCell>
        <mxCell id="vnJfhgnDVNhTZriFCoJO-137" value="" style="shape=partialRectangle;html=1;whiteSpace=wrap;connectable=0;overflow=hidden;fillColor=#60a917;top=0;left=0;bottom=0;right=0;pointerEvents=1;fontColor=#ffffff;strokeColor=#2D7600;" vertex="1" parent="vnJfhgnDVNhTZriFCoJO-134">
          <mxGeometry x="25" width="14" height="11" as="geometry">
            <mxRectangle width="14" height="11" as="alternateBounds" />
          </mxGeometry>
        </mxCell>
        <mxCell id="vnJfhgnDVNhTZriFCoJO-138" value="" style="shape=partialRectangle;html=1;whiteSpace=wrap;connectable=0;overflow=hidden;fillColor=none;top=0;left=0;bottom=0;right=0;pointerEvents=1;" vertex="1" parent="vnJfhgnDVNhTZriFCoJO-134">
          <mxGeometry x="39" width="12" height="11" as="geometry">
            <mxRectangle width="12" height="11" as="alternateBounds" />
          </mxGeometry>
        </mxCell>
        <mxCell id="vnJfhgnDVNhTZriFCoJO-139" value="" style="shape=partialRectangle;html=1;whiteSpace=wrap;connectable=0;overflow=hidden;fillColor=none;top=0;left=0;bottom=0;right=0;pointerEvents=1;" vertex="1" parent="vnJfhgnDVNhTZriFCoJO-134">
          <mxGeometry x="51" width="14" height="11" as="geometry">
            <mxRectangle width="14" height="11" as="alternateBounds" />
          </mxGeometry>
        </mxCell>
        <mxCell id="vnJfhgnDVNhTZriFCoJO-140" value="" style="shape=partialRectangle;html=1;whiteSpace=wrap;connectable=0;overflow=hidden;fillColor=none;top=0;left=0;bottom=0;right=0;pointerEvents=1;" vertex="1" parent="vnJfhgnDVNhTZriFCoJO-134">
          <mxGeometry x="65" width="13" height="11" as="geometry">
            <mxRectangle width="13" height="11" as="alternateBounds" />
          </mxGeometry>
        </mxCell>
        <mxCell id="vnJfhgnDVNhTZriFCoJO-141" value="" style="shape=partialRectangle;html=1;whiteSpace=wrap;connectable=0;overflow=hidden;fillColor=none;top=0;left=0;bottom=0;right=0;pointerEvents=1;" vertex="1" parent="vnJfhgnDVNhTZriFCoJO-134">
          <mxGeometry x="78" width="12" height="11" as="geometry">
            <mxRectangle width="12" height="11" as="alternateBounds" />
          </mxGeometry>
        </mxCell>
        <mxCell id="vnJfhgnDVNhTZriFCoJO-142" value="" style="shape=partialRectangle;collapsible=0;dropTarget=0;pointerEvents=0;fillColor=none;top=0;left=0;bottom=0;right=0;points=[[0,0.5],[1,0.5]];portConstraint=eastwest;" vertex="1" parent="vnJfhgnDVNhTZriFCoJO-69">
          <mxGeometry y="99" width="90" height="11" as="geometry" />
        </mxCell>
        <mxCell id="vnJfhgnDVNhTZriFCoJO-143" value="" style="shape=partialRectangle;html=1;whiteSpace=wrap;connectable=0;overflow=hidden;fillColor=#ffe6cc;top=0;left=0;bottom=0;right=0;pointerEvents=1;strokeColor=#d79b00;" vertex="1" parent="vnJfhgnDVNhTZriFCoJO-142">
          <mxGeometry width="12" height="11" as="geometry">
            <mxRectangle width="12" height="11" as="alternateBounds" />
          </mxGeometry>
        </mxCell>
        <mxCell id="vnJfhgnDVNhTZriFCoJO-144" value="" style="shape=partialRectangle;html=1;whiteSpace=wrap;connectable=0;overflow=hidden;fillColor=#dae8fc;top=0;left=0;bottom=0;right=0;pointerEvents=1;strokeColor=#6c8ebf;" vertex="1" parent="vnJfhgnDVNhTZriFCoJO-142">
          <mxGeometry x="12" width="13" height="11" as="geometry">
            <mxRectangle width="13" height="11" as="alternateBounds" />
          </mxGeometry>
        </mxCell>
        <mxCell id="vnJfhgnDVNhTZriFCoJO-145" value="" style="shape=partialRectangle;html=1;whiteSpace=wrap;connectable=0;overflow=hidden;fillColor=#60a917;top=0;left=0;bottom=0;right=0;pointerEvents=1;fontColor=#ffffff;strokeColor=#2D7600;" vertex="1" parent="vnJfhgnDVNhTZriFCoJO-142">
          <mxGeometry x="25" width="14" height="11" as="geometry">
            <mxRectangle width="14" height="11" as="alternateBounds" />
          </mxGeometry>
        </mxCell>
        <mxCell id="vnJfhgnDVNhTZriFCoJO-146" value="" style="shape=partialRectangle;html=1;whiteSpace=wrap;connectable=0;overflow=hidden;fillColor=none;top=0;left=0;bottom=0;right=0;pointerEvents=1;" vertex="1" parent="vnJfhgnDVNhTZriFCoJO-142">
          <mxGeometry x="39" width="12" height="11" as="geometry">
            <mxRectangle width="12" height="11" as="alternateBounds" />
          </mxGeometry>
        </mxCell>
        <mxCell id="vnJfhgnDVNhTZriFCoJO-147" value="" style="shape=partialRectangle;html=1;whiteSpace=wrap;connectable=0;overflow=hidden;fillColor=none;top=0;left=0;bottom=0;right=0;pointerEvents=1;" vertex="1" parent="vnJfhgnDVNhTZriFCoJO-142">
          <mxGeometry x="51" width="14" height="11" as="geometry">
            <mxRectangle width="14" height="11" as="alternateBounds" />
          </mxGeometry>
        </mxCell>
        <mxCell id="vnJfhgnDVNhTZriFCoJO-148" value="" style="shape=partialRectangle;html=1;whiteSpace=wrap;connectable=0;overflow=hidden;fillColor=none;top=0;left=0;bottom=0;right=0;pointerEvents=1;" vertex="1" parent="vnJfhgnDVNhTZriFCoJO-142">
          <mxGeometry x="65" width="13" height="11" as="geometry">
            <mxRectangle width="13" height="11" as="alternateBounds" />
          </mxGeometry>
        </mxCell>
        <mxCell id="vnJfhgnDVNhTZriFCoJO-149" value="" style="shape=partialRectangle;html=1;whiteSpace=wrap;connectable=0;overflow=hidden;fillColor=none;top=0;left=0;bottom=0;right=0;pointerEvents=1;" vertex="1" parent="vnJfhgnDVNhTZriFCoJO-142">
          <mxGeometry x="78" width="12" height="11" as="geometry">
            <mxRectangle width="12" height="11" as="alternateBounds" />
          </mxGeometry>
        </mxCell>
        <mxCell id="vnJfhgnDVNhTZriFCoJO-471" value="" style="shape=table;startSize=0;container=1;collapsible=0;childLayout=tableLayout;strokeColor=#000000;strokeWidth=2;fillColor=#FFFFFF;" vertex="1" parent="1">
          <mxGeometry x="550" y="495" width="30" height="40" as="geometry" />
        </mxCell>
        <mxCell id="vnJfhgnDVNhTZriFCoJO-472" value="" style="shape=partialRectangle;collapsible=0;dropTarget=0;pointerEvents=0;fillColor=none;top=0;left=0;bottom=0;right=0;points=[[0,0.5],[1,0.5]];portConstraint=eastwest;strokeColor=#000000;strokeWidth=2;" vertex="1" parent="vnJfhgnDVNhTZriFCoJO-471">
          <mxGeometry width="30" height="4" as="geometry" />
        </mxCell>
        <mxCell id="vnJfhgnDVNhTZriFCoJO-473" value="" style="shape=partialRectangle;html=1;whiteSpace=wrap;connectable=0;overflow=hidden;fillColor=#ffe6cc;top=0;left=0;bottom=0;right=0;pointerEvents=1;strokeColor=#d79b00;strokeWidth=2;" vertex="1" parent="vnJfhgnDVNhTZriFCoJO-472">
          <mxGeometry width="10" height="4" as="geometry">
            <mxRectangle width="10" height="4" as="alternateBounds" />
          </mxGeometry>
        </mxCell>
        <mxCell id="vnJfhgnDVNhTZriFCoJO-474" value="" style="shape=partialRectangle;html=1;whiteSpace=wrap;connectable=0;overflow=hidden;fillColor=#dae8fc;top=0;left=0;bottom=0;right=0;pointerEvents=1;strokeColor=#6c8ebf;strokeWidth=2;" vertex="1" parent="vnJfhgnDVNhTZriFCoJO-472">
          <mxGeometry x="10" width="10" height="4" as="geometry">
            <mxRectangle width="10" height="4" as="alternateBounds" />
          </mxGeometry>
        </mxCell>
        <mxCell id="vnJfhgnDVNhTZriFCoJO-475" value="" style="shape=partialRectangle;html=1;whiteSpace=wrap;connectable=0;overflow=hidden;fillColor=#60a917;top=0;left=0;bottom=0;right=0;pointerEvents=1;strokeColor=#2D7600;strokeWidth=2;fontColor=#ffffff;" vertex="1" parent="vnJfhgnDVNhTZriFCoJO-472">
          <mxGeometry x="20" width="10" height="4" as="geometry">
            <mxRectangle width="10" height="4" as="alternateBounds" />
          </mxGeometry>
        </mxCell>
        <mxCell id="vnJfhgnDVNhTZriFCoJO-476" value="" style="shape=partialRectangle;collapsible=0;dropTarget=0;pointerEvents=0;fillColor=none;top=0;left=0;bottom=0;right=0;points=[[0,0.5],[1,0.5]];portConstraint=eastwest;strokeColor=#000000;strokeWidth=2;" vertex="1" parent="vnJfhgnDVNhTZriFCoJO-471">
          <mxGeometry y="4" width="30" height="5" as="geometry" />
        </mxCell>
        <mxCell id="vnJfhgnDVNhTZriFCoJO-477" value="" style="shape=partialRectangle;html=1;whiteSpace=wrap;connectable=0;overflow=hidden;fillColor=#ffe6cc;top=0;left=0;bottom=0;right=0;pointerEvents=1;strokeColor=#d79b00;strokeWidth=2;" vertex="1" parent="vnJfhgnDVNhTZriFCoJO-476">
          <mxGeometry width="10" height="5" as="geometry">
            <mxRectangle width="10" height="5" as="alternateBounds" />
          </mxGeometry>
        </mxCell>
        <mxCell id="vnJfhgnDVNhTZriFCoJO-478" value="" style="shape=partialRectangle;html=1;whiteSpace=wrap;connectable=0;overflow=hidden;fillColor=#dae8fc;top=0;left=0;bottom=0;right=0;pointerEvents=1;strokeColor=#6c8ebf;strokeWidth=2;" vertex="1" parent="vnJfhgnDVNhTZriFCoJO-476">
          <mxGeometry x="10" width="10" height="5" as="geometry">
            <mxRectangle width="10" height="5" as="alternateBounds" />
          </mxGeometry>
        </mxCell>
        <mxCell id="vnJfhgnDVNhTZriFCoJO-479" value="" style="shape=partialRectangle;html=1;whiteSpace=wrap;connectable=0;overflow=hidden;fillColor=#60a917;top=0;left=0;bottom=0;right=0;pointerEvents=1;strokeColor=#2D7600;strokeWidth=2;fontColor=#ffffff;" vertex="1" parent="vnJfhgnDVNhTZriFCoJO-476">
          <mxGeometry x="20" width="10" height="5" as="geometry">
            <mxRectangle width="10" height="5" as="alternateBounds" />
          </mxGeometry>
        </mxCell>
        <mxCell id="vnJfhgnDVNhTZriFCoJO-480" value="" style="shape=partialRectangle;collapsible=0;dropTarget=0;pointerEvents=0;fillColor=none;top=0;left=0;bottom=0;right=0;points=[[0,0.5],[1,0.5]];portConstraint=eastwest;strokeColor=#000000;strokeWidth=2;" vertex="1" parent="vnJfhgnDVNhTZriFCoJO-471">
          <mxGeometry y="9" width="30" height="4" as="geometry" />
        </mxCell>
        <mxCell id="vnJfhgnDVNhTZriFCoJO-481" value="" style="shape=partialRectangle;html=1;whiteSpace=wrap;connectable=0;overflow=hidden;fillColor=#ffe6cc;top=0;left=0;bottom=0;right=0;pointerEvents=1;strokeColor=#d79b00;strokeWidth=2;" vertex="1" parent="vnJfhgnDVNhTZriFCoJO-480">
          <mxGeometry width="10" height="4" as="geometry">
            <mxRectangle width="10" height="4" as="alternateBounds" />
          </mxGeometry>
        </mxCell>
        <mxCell id="vnJfhgnDVNhTZriFCoJO-482" value="" style="shape=partialRectangle;html=1;whiteSpace=wrap;connectable=0;overflow=hidden;fillColor=#dae8fc;top=0;left=0;bottom=0;right=0;pointerEvents=1;strokeColor=#6c8ebf;strokeWidth=2;" vertex="1" parent="vnJfhgnDVNhTZriFCoJO-480">
          <mxGeometry x="10" width="10" height="4" as="geometry">
            <mxRectangle width="10" height="4" as="alternateBounds" />
          </mxGeometry>
        </mxCell>
        <mxCell id="vnJfhgnDVNhTZriFCoJO-483" value="" style="shape=partialRectangle;html=1;whiteSpace=wrap;connectable=0;overflow=hidden;fillColor=#60a917;top=0;left=0;bottom=0;right=0;pointerEvents=1;strokeColor=#2D7600;strokeWidth=2;fontColor=#ffffff;" vertex="1" parent="vnJfhgnDVNhTZriFCoJO-480">
          <mxGeometry x="20" width="10" height="4" as="geometry">
            <mxRectangle width="10" height="4" as="alternateBounds" />
          </mxGeometry>
        </mxCell>
        <mxCell id="vnJfhgnDVNhTZriFCoJO-484" value="" style="shape=partialRectangle;collapsible=0;dropTarget=0;pointerEvents=0;fillColor=none;top=0;left=0;bottom=0;right=0;points=[[0,0.5],[1,0.5]];portConstraint=eastwest;strokeColor=#000000;strokeWidth=2;" vertex="1" parent="vnJfhgnDVNhTZriFCoJO-471">
          <mxGeometry y="13" width="30" height="5" as="geometry" />
        </mxCell>
        <mxCell id="vnJfhgnDVNhTZriFCoJO-485" value="" style="shape=partialRectangle;html=1;whiteSpace=wrap;connectable=0;overflow=hidden;fillColor=#ffe6cc;top=0;left=0;bottom=0;right=0;pointerEvents=1;strokeColor=#d79b00;strokeWidth=2;" vertex="1" parent="vnJfhgnDVNhTZriFCoJO-484">
          <mxGeometry width="10" height="5" as="geometry">
            <mxRectangle width="10" height="5" as="alternateBounds" />
          </mxGeometry>
        </mxCell>
        <mxCell id="vnJfhgnDVNhTZriFCoJO-486" value="" style="shape=partialRectangle;html=1;whiteSpace=wrap;connectable=0;overflow=hidden;fillColor=#dae8fc;top=0;left=0;bottom=0;right=0;pointerEvents=1;strokeColor=#6c8ebf;strokeWidth=2;" vertex="1" parent="vnJfhgnDVNhTZriFCoJO-484">
          <mxGeometry x="10" width="10" height="5" as="geometry">
            <mxRectangle width="10" height="5" as="alternateBounds" />
          </mxGeometry>
        </mxCell>
        <mxCell id="vnJfhgnDVNhTZriFCoJO-487" value="" style="shape=partialRectangle;html=1;whiteSpace=wrap;connectable=0;overflow=hidden;fillColor=#60a917;top=0;left=0;bottom=0;right=0;pointerEvents=1;strokeColor=#2D7600;strokeWidth=2;fontColor=#ffffff;" vertex="1" parent="vnJfhgnDVNhTZriFCoJO-484">
          <mxGeometry x="20" width="10" height="5" as="geometry">
            <mxRectangle width="10" height="5" as="alternateBounds" />
          </mxGeometry>
        </mxCell>
        <mxCell id="vnJfhgnDVNhTZriFCoJO-488" value="" style="shape=partialRectangle;collapsible=0;dropTarget=0;pointerEvents=0;fillColor=none;top=0;left=0;bottom=0;right=0;points=[[0,0.5],[1,0.5]];portConstraint=eastwest;strokeColor=#000000;strokeWidth=2;" vertex="1" parent="vnJfhgnDVNhTZriFCoJO-471">
          <mxGeometry y="18" width="30" height="4" as="geometry" />
        </mxCell>
        <mxCell id="vnJfhgnDVNhTZriFCoJO-489" value="" style="shape=partialRectangle;html=1;whiteSpace=wrap;connectable=0;overflow=hidden;fillColor=#ffe6cc;top=0;left=0;bottom=0;right=0;pointerEvents=1;strokeColor=#d79b00;strokeWidth=2;" vertex="1" parent="vnJfhgnDVNhTZriFCoJO-488">
          <mxGeometry width="10" height="4" as="geometry">
            <mxRectangle width="10" height="4" as="alternateBounds" />
          </mxGeometry>
        </mxCell>
        <mxCell id="vnJfhgnDVNhTZriFCoJO-490" value="" style="shape=partialRectangle;html=1;whiteSpace=wrap;connectable=0;overflow=hidden;fillColor=#dae8fc;top=0;left=0;bottom=0;right=0;pointerEvents=1;strokeColor=#6c8ebf;strokeWidth=2;" vertex="1" parent="vnJfhgnDVNhTZriFCoJO-488">
          <mxGeometry x="10" width="10" height="4" as="geometry">
            <mxRectangle width="10" height="4" as="alternateBounds" />
          </mxGeometry>
        </mxCell>
        <mxCell id="vnJfhgnDVNhTZriFCoJO-491" value="" style="shape=partialRectangle;html=1;whiteSpace=wrap;connectable=0;overflow=hidden;fillColor=#60a917;top=0;left=0;bottom=0;right=0;pointerEvents=1;strokeColor=#2D7600;strokeWidth=2;fontColor=#ffffff;" vertex="1" parent="vnJfhgnDVNhTZriFCoJO-488">
          <mxGeometry x="20" width="10" height="4" as="geometry">
            <mxRectangle width="10" height="4" as="alternateBounds" />
          </mxGeometry>
        </mxCell>
        <mxCell id="vnJfhgnDVNhTZriFCoJO-492" value="" style="shape=partialRectangle;collapsible=0;dropTarget=0;pointerEvents=0;fillColor=none;top=0;left=0;bottom=0;right=0;points=[[0,0.5],[1,0.5]];portConstraint=eastwest;strokeColor=#000000;strokeWidth=2;" vertex="1" parent="vnJfhgnDVNhTZriFCoJO-471">
          <mxGeometry y="22" width="30" height="5" as="geometry" />
        </mxCell>
        <mxCell id="vnJfhgnDVNhTZriFCoJO-493" value="" style="shape=partialRectangle;html=1;whiteSpace=wrap;connectable=0;overflow=hidden;fillColor=#ffe6cc;top=0;left=0;bottom=0;right=0;pointerEvents=1;strokeColor=#d79b00;strokeWidth=2;" vertex="1" parent="vnJfhgnDVNhTZriFCoJO-492">
          <mxGeometry width="10" height="5" as="geometry">
            <mxRectangle width="10" height="5" as="alternateBounds" />
          </mxGeometry>
        </mxCell>
        <mxCell id="vnJfhgnDVNhTZriFCoJO-494" value="" style="shape=partialRectangle;html=1;whiteSpace=wrap;connectable=0;overflow=hidden;fillColor=#dae8fc;top=0;left=0;bottom=0;right=0;pointerEvents=1;strokeColor=#6c8ebf;strokeWidth=2;" vertex="1" parent="vnJfhgnDVNhTZriFCoJO-492">
          <mxGeometry x="10" width="10" height="5" as="geometry">
            <mxRectangle width="10" height="5" as="alternateBounds" />
          </mxGeometry>
        </mxCell>
        <mxCell id="vnJfhgnDVNhTZriFCoJO-495" value="" style="shape=partialRectangle;html=1;whiteSpace=wrap;connectable=0;overflow=hidden;fillColor=#60a917;top=0;left=0;bottom=0;right=0;pointerEvents=1;strokeColor=#2D7600;strokeWidth=2;fontColor=#ffffff;" vertex="1" parent="vnJfhgnDVNhTZriFCoJO-492">
          <mxGeometry x="20" width="10" height="5" as="geometry">
            <mxRectangle width="10" height="5" as="alternateBounds" />
          </mxGeometry>
        </mxCell>
        <mxCell id="vnJfhgnDVNhTZriFCoJO-496" value="" style="shape=partialRectangle;collapsible=0;dropTarget=0;pointerEvents=0;fillColor=none;top=0;left=0;bottom=0;right=0;points=[[0,0.5],[1,0.5]];portConstraint=eastwest;strokeColor=#000000;strokeWidth=2;" vertex="1" parent="vnJfhgnDVNhTZriFCoJO-471">
          <mxGeometry y="27" width="30" height="4" as="geometry" />
        </mxCell>
        <mxCell id="vnJfhgnDVNhTZriFCoJO-497" value="" style="shape=partialRectangle;html=1;whiteSpace=wrap;connectable=0;overflow=hidden;fillColor=#ffe6cc;top=0;left=0;bottom=0;right=0;pointerEvents=1;strokeColor=#d79b00;strokeWidth=2;" vertex="1" parent="vnJfhgnDVNhTZriFCoJO-496">
          <mxGeometry width="10" height="4" as="geometry">
            <mxRectangle width="10" height="4" as="alternateBounds" />
          </mxGeometry>
        </mxCell>
        <mxCell id="vnJfhgnDVNhTZriFCoJO-498" value="" style="shape=partialRectangle;html=1;whiteSpace=wrap;connectable=0;overflow=hidden;fillColor=#dae8fc;top=0;left=0;bottom=0;right=0;pointerEvents=1;strokeColor=#6c8ebf;strokeWidth=2;" vertex="1" parent="vnJfhgnDVNhTZriFCoJO-496">
          <mxGeometry x="10" width="10" height="4" as="geometry">
            <mxRectangle width="10" height="4" as="alternateBounds" />
          </mxGeometry>
        </mxCell>
        <mxCell id="vnJfhgnDVNhTZriFCoJO-499" value="" style="shape=partialRectangle;html=1;whiteSpace=wrap;connectable=0;overflow=hidden;fillColor=#60a917;top=0;left=0;bottom=0;right=0;pointerEvents=1;strokeColor=#2D7600;strokeWidth=2;fontColor=#ffffff;" vertex="1" parent="vnJfhgnDVNhTZriFCoJO-496">
          <mxGeometry x="20" width="10" height="4" as="geometry">
            <mxRectangle width="10" height="4" as="alternateBounds" />
          </mxGeometry>
        </mxCell>
        <mxCell id="vnJfhgnDVNhTZriFCoJO-500" value="" style="shape=partialRectangle;collapsible=0;dropTarget=0;pointerEvents=0;fillColor=none;top=0;left=0;bottom=0;right=0;points=[[0,0.5],[1,0.5]];portConstraint=eastwest;strokeColor=#000000;strokeWidth=2;" vertex="1" parent="vnJfhgnDVNhTZriFCoJO-471">
          <mxGeometry y="31" width="30" height="5" as="geometry" />
        </mxCell>
        <mxCell id="vnJfhgnDVNhTZriFCoJO-501" value="" style="shape=partialRectangle;html=1;whiteSpace=wrap;connectable=0;overflow=hidden;fillColor=#ffe6cc;top=0;left=0;bottom=0;right=0;pointerEvents=1;strokeColor=#d79b00;strokeWidth=2;" vertex="1" parent="vnJfhgnDVNhTZriFCoJO-500">
          <mxGeometry width="10" height="5" as="geometry">
            <mxRectangle width="10" height="5" as="alternateBounds" />
          </mxGeometry>
        </mxCell>
        <mxCell id="vnJfhgnDVNhTZriFCoJO-502" value="" style="shape=partialRectangle;html=1;whiteSpace=wrap;connectable=0;overflow=hidden;fillColor=#dae8fc;top=0;left=0;bottom=0;right=0;pointerEvents=1;strokeColor=#6c8ebf;strokeWidth=2;" vertex="1" parent="vnJfhgnDVNhTZriFCoJO-500">
          <mxGeometry x="10" width="10" height="5" as="geometry">
            <mxRectangle width="10" height="5" as="alternateBounds" />
          </mxGeometry>
        </mxCell>
        <mxCell id="vnJfhgnDVNhTZriFCoJO-503" value="" style="shape=partialRectangle;html=1;whiteSpace=wrap;connectable=0;overflow=hidden;fillColor=#60a917;top=0;left=0;bottom=0;right=0;pointerEvents=1;strokeColor=#2D7600;strokeWidth=2;fontColor=#ffffff;" vertex="1" parent="vnJfhgnDVNhTZriFCoJO-500">
          <mxGeometry x="20" width="10" height="5" as="geometry">
            <mxRectangle width="10" height="5" as="alternateBounds" />
          </mxGeometry>
        </mxCell>
        <mxCell id="vnJfhgnDVNhTZriFCoJO-504" value="" style="shape=partialRectangle;collapsible=0;dropTarget=0;pointerEvents=0;fillColor=none;top=0;left=0;bottom=0;right=0;points=[[0,0.5],[1,0.5]];portConstraint=eastwest;strokeColor=#000000;strokeWidth=2;" vertex="1" parent="vnJfhgnDVNhTZriFCoJO-471">
          <mxGeometry y="36" width="30" height="4" as="geometry" />
        </mxCell>
        <mxCell id="vnJfhgnDVNhTZriFCoJO-505" value="" style="shape=partialRectangle;html=1;whiteSpace=wrap;connectable=0;overflow=hidden;fillColor=#ffe6cc;top=0;left=0;bottom=0;right=0;pointerEvents=1;strokeColor=#d79b00;strokeWidth=2;" vertex="1" parent="vnJfhgnDVNhTZriFCoJO-504">
          <mxGeometry width="10" height="4" as="geometry">
            <mxRectangle width="10" height="4" as="alternateBounds" />
          </mxGeometry>
        </mxCell>
        <mxCell id="vnJfhgnDVNhTZriFCoJO-506" value="" style="shape=partialRectangle;html=1;whiteSpace=wrap;connectable=0;overflow=hidden;fillColor=#dae8fc;top=0;left=0;bottom=0;right=0;pointerEvents=1;strokeColor=#6c8ebf;strokeWidth=2;" vertex="1" parent="vnJfhgnDVNhTZriFCoJO-504">
          <mxGeometry x="10" width="10" height="4" as="geometry">
            <mxRectangle width="10" height="4" as="alternateBounds" />
          </mxGeometry>
        </mxCell>
        <mxCell id="vnJfhgnDVNhTZriFCoJO-507" value="" style="shape=partialRectangle;html=1;whiteSpace=wrap;connectable=0;overflow=hidden;fillColor=#60a917;top=0;left=0;bottom=0;right=0;pointerEvents=1;strokeColor=#2D7600;strokeWidth=2;fontColor=#ffffff;" vertex="1" parent="vnJfhgnDVNhTZriFCoJO-504">
          <mxGeometry x="20" width="10" height="4" as="geometry">
            <mxRectangle width="10" height="4" as="alternateBounds" />
          </mxGeometry>
        </mxCell>
        <mxCell id="vnJfhgnDVNhTZriFCoJO-617" value="" style="endArrow=classic;html=1;rounded=0;endSize=3;strokeWidth=1;entryX=0;entryY=0.5;entryDx=0;entryDy=0;" edge="1" parent="1" target="vnJfhgnDVNhTZriFCoJO-472">
          <mxGeometry width="50" height="50" relative="1" as="geometry">
            <mxPoint x="430" y="465" as="sourcePoint" />
            <mxPoint x="480" y="415" as="targetPoint" />
          </mxGeometry>
        </mxCell>
        <mxCell id="vnJfhgnDVNhTZriFCoJO-618" value="" style="endArrow=classic;html=1;rounded=0;endSize=3;strokeWidth=1;entryX=0.344;entryY=-0.333;entryDx=0;entryDy=0;entryPerimeter=0;" edge="1" parent="1" target="vnJfhgnDVNhTZriFCoJO-496">
          <mxGeometry width="50" height="50" relative="1" as="geometry">
            <mxPoint x="440" y="525" as="sourcePoint" />
            <mxPoint x="490" y="475" as="targetPoint" />
          </mxGeometry>
        </mxCell>
        <mxCell id="vnJfhgnDVNhTZriFCoJO-619" value="" style="endArrow=classic;html=1;rounded=0;endSize=3;strokeWidth=1;entryX=0.833;entryY=-0.083;entryDx=0;entryDy=0;entryPerimeter=0;" edge="1" parent="1" target="vnJfhgnDVNhTZriFCoJO-504">
          <mxGeometry width="50" height="50" relative="1" as="geometry">
            <mxPoint x="450" y="555" as="sourcePoint" />
            <mxPoint x="500" y="505" as="targetPoint" />
          </mxGeometry>
        </mxCell>
        <mxCell id="vnJfhgnDVNhTZriFCoJO-620" value="" style="endArrow=classic;html=1;rounded=0;endSize=3;strokeWidth=1;" edge="1" parent="1">
          <mxGeometry width="50" height="50" relative="1" as="geometry">
            <mxPoint x="430" y="595" as="sourcePoint" />
            <mxPoint x="430" y="565" as="targetPoint" />
          </mxGeometry>
        </mxCell>
        <mxCell id="vnJfhgnDVNhTZriFCoJO-621" value="" style="endArrow=classic;html=1;rounded=0;endSize=3;strokeWidth=1;" edge="1" parent="1">
          <mxGeometry width="50" height="50" relative="1" as="geometry">
            <mxPoint x="440" y="595" as="sourcePoint" />
            <mxPoint x="440" y="565" as="targetPoint" />
          </mxGeometry>
        </mxCell>
        <mxCell id="vnJfhgnDVNhTZriFCoJO-622" value="" style="endArrow=classic;html=1;rounded=0;endSize=3;strokeWidth=1;" edge="1" parent="1">
          <mxGeometry width="50" height="50" relative="1" as="geometry">
            <mxPoint x="450" y="595" as="sourcePoint" />
            <mxPoint x="450" y="565" as="targetPoint" />
          </mxGeometry>
        </mxCell>
        <mxCell id="vnJfhgnDVNhTZriFCoJO-623" value="" style="endArrow=classic;html=1;rounded=0;endSize=3;strokeWidth=1;" edge="1" parent="1">
          <mxGeometry width="50" height="50" relative="1" as="geometry">
            <mxPoint x="464.58" y="595" as="sourcePoint" />
            <mxPoint x="464.58" y="565" as="targetPoint" />
          </mxGeometry>
        </mxCell>
        <mxCell id="vnJfhgnDVNhTZriFCoJO-624" value="" style="endArrow=classic;html=1;rounded=0;endSize=3;strokeWidth=1;" edge="1" parent="1">
          <mxGeometry width="50" height="50" relative="1" as="geometry">
            <mxPoint x="479.99999999999994" y="595" as="sourcePoint" />
            <mxPoint x="479.99999999999994" y="565" as="targetPoint" />
          </mxGeometry>
        </mxCell>
        <mxCell id="vnJfhgnDVNhTZriFCoJO-625" value="" style="endArrow=classic;html=1;rounded=0;endSize=3;strokeWidth=1;" edge="1" parent="1">
          <mxGeometry width="50" height="50" relative="1" as="geometry">
            <mxPoint x="490" y="595" as="sourcePoint" />
            <mxPoint x="490" y="565" as="targetPoint" />
          </mxGeometry>
        </mxCell>
        <mxCell id="vnJfhgnDVNhTZriFCoJO-626" value="" style="endArrow=classic;html=1;rounded=0;endSize=3;strokeWidth=1;" edge="1" parent="1">
          <mxGeometry width="50" height="50" relative="1" as="geometry">
            <mxPoint x="500" y="595" as="sourcePoint" />
            <mxPoint x="500" y="565" as="targetPoint" />
          </mxGeometry>
        </mxCell>
        <mxCell id="vnJfhgnDVNhTZriFCoJO-627" value="卷积核K" style="text;html=1;resizable=0;autosize=1;align=center;verticalAlign=middle;points=[];fillColor=none;strokeColor=none;rounded=0;" vertex="1" parent="1">
          <mxGeometry x="540" y="545" width="60" height="20" as="geometry" />
        </mxCell>
        <mxCell id="vnJfhgnDVNhTZriFCoJO-629" value="" style="rounded=1;whiteSpace=wrap;html=1;strokeColor=#000000;strokeWidth=2;fillColor=#FFFFFF;" vertex="1" parent="1">
          <mxGeometry x="166.5" y="340" width="227" height="65" as="geometry" />
        </mxCell>
        <mxCell id="vnJfhgnDVNhTZriFCoJO-630" value="" style="rounded=1;whiteSpace=wrap;html=1;strokeColor=#000000;strokeWidth=2;fillColor=#FFFFFF;" vertex="1" parent="1">
          <mxGeometry x="420" y="340" width="240" height="65" as="geometry" />
        </mxCell>
        <mxCell id="vnJfhgnDVNhTZriFCoJO-631" value="&lt;font style=&quot;font-size: 16px&quot;&gt;&lt;b&gt;SAM&lt;/b&gt;&lt;/font&gt;" style="text;html=1;resizable=0;autosize=1;align=center;verticalAlign=middle;points=[];fillColor=none;strokeColor=none;rounded=0;rotation=90;" vertex="1" parent="1">
          <mxGeometry x="155" y="495" width="50" height="20" as="geometry" />
        </mxCell>
        <mxCell id="vnJfhgnDVNhTZriFCoJO-632" value="&lt;font style=&quot;font-size: 16px&quot;&gt;&lt;b&gt;PAM&lt;/b&gt;&lt;/font&gt;" style="text;html=1;resizable=0;autosize=1;align=center;verticalAlign=middle;points=[];fillColor=none;strokeColor=none;rounded=0;rotation=90;" vertex="1" parent="1">
          <mxGeometry x="600" y="505" width="50" height="20" as="geometry" />
        </mxCell>
        <mxCell id="vnJfhgnDVNhTZriFCoJO-634" value="&lt;b&gt;SDM&lt;/b&gt;" style="text;html=1;resizable=0;autosize=1;align=center;verticalAlign=middle;points=[];fillColor=none;strokeColor=none;rounded=0;fontSize=16;" vertex="1" parent="1">
          <mxGeometry x="250" y="365" width="50" height="20" as="geometry" />
        </mxCell>
        <mxCell id="vnJfhgnDVNhTZriFCoJO-638" value="" style="html=1;shadow=0;dashed=0;align=center;verticalAlign=middle;shape=mxgraph.arrows2.arrow;dy=0.6;dx=10;direction=north;notch=0;fontSize=6;strokeColor=#000000;strokeWidth=1;fillColor=#FFFFFF;" vertex="1" parent="1">
          <mxGeometry x="210" y="405" width="10" height="30" as="geometry" />
        </mxCell>
        <mxCell id="vnJfhgnDVNhTZriFCoJO-647" value="" style="html=1;shadow=0;dashed=0;align=center;verticalAlign=middle;shape=mxgraph.arrows2.arrow;dy=0.6;dx=10;direction=north;notch=0;fontSize=6;strokeColor=#000000;strokeWidth=1;fillColor=#FFFFFF;" vertex="1" parent="1">
          <mxGeometry x="275" y="310" width="10" height="30" as="geometry" />
        </mxCell>
        <mxCell id="vnJfhgnDVNhTZriFCoJO-650" value="任务？" style="text;html=1;resizable=0;autosize=1;align=center;verticalAlign=middle;points=[];fillColor=none;strokeColor=none;rounded=0;shadow=0;dashed=0;fontFamily=Helvetica;fontSize=16;fontColor=default;" vertex="1" parent="1">
          <mxGeometry x="257" y="290" width="60" height="20" as="geometry" />
        </mxCell>
        <mxCell id="vnJfhgnDVNhTZriFCoJO-652" value="" style="rounded=0;whiteSpace=wrap;html=1;fillColor=#FF8000;" vertex="1" parent="1">
          <mxGeometry x="534" y="440" width="16" height="30" as="geometry" />
        </mxCell>
        <mxCell id="vnJfhgnDVNhTZriFCoJO-653" value="" style="rounded=0;whiteSpace=wrap;html=1;fillColor=#FF8000;" vertex="1" parent="1">
          <mxGeometry x="610" y="440" width="16" height="30" as="geometry" />
        </mxCell>
        <mxCell id="vnJfhgnDVNhTZriFCoJO-654" value="" style="rounded=0;whiteSpace=wrap;html=1;fillColor=#FF8000;" vertex="1" parent="1">
          <mxGeometry x="570" y="440" width="16" height="30" as="geometry" />
        </mxCell>
        <mxCell id="vnJfhgnDVNhTZriFCoJO-656" value="" style="endArrow=classic;html=1;rounded=0;fontFamily=Helvetica;fontSize=16;fontColor=default;startSize=2;endSize=1;targetPerimeterSpacing=1;strokeWidth=1;" edge="1" parent="1">
          <mxGeometry width="50" height="50" relative="1" as="geometry">
            <mxPoint x="550" y="495" as="sourcePoint" />
            <mxPoint x="540" y="470" as="targetPoint" />
          </mxGeometry>
        </mxCell>
        <mxCell id="vnJfhgnDVNhTZriFCoJO-659" value="" style="endArrow=classic;html=1;rounded=0;fontFamily=Helvetica;fontSize=16;fontColor=default;startSize=2;endSize=1;targetPerimeterSpacing=1;strokeWidth=1;dashed=1;" edge="1" parent="1" target="vnJfhgnDVNhTZriFCoJO-630">
          <mxGeometry width="50" height="50" relative="1" as="geometry">
            <mxPoint x="240" y="455" as="sourcePoint" />
            <mxPoint x="320" y="410" as="targetPoint" />
          </mxGeometry>
        </mxCell>
        <mxCell id="vnJfhgnDVNhTZriFCoJO-660" value="" style="endArrow=classic;html=1;rounded=0;fontFamily=Helvetica;fontSize=16;fontColor=default;startSize=2;endSize=1;targetPerimeterSpacing=1;strokeWidth=1;entryX=0.093;entryY=1.038;entryDx=0;entryDy=0;entryPerimeter=0;dashed=1;" edge="1" parent="1" target="vnJfhgnDVNhTZriFCoJO-630">
          <mxGeometry width="50" height="50" relative="1" as="geometry">
            <mxPoint x="283" y="455" as="sourcePoint" />
            <mxPoint x="333" y="405" as="targetPoint" />
          </mxGeometry>
        </mxCell>
        <mxCell id="vnJfhgnDVNhTZriFCoJO-661" value="" style="endArrow=classic;html=1;rounded=0;dashed=1;fontFamily=Helvetica;fontSize=16;fontColor=default;startSize=2;endSize=1;targetPerimeterSpacing=1;strokeWidth=1;entryX=0.188;entryY=1.057;entryDx=0;entryDy=0;entryPerimeter=0;" edge="1" parent="1" target="vnJfhgnDVNhTZriFCoJO-630">
          <mxGeometry width="50" height="50" relative="1" as="geometry">
            <mxPoint x="323" y="455" as="sourcePoint" />
            <mxPoint x="373" y="405" as="targetPoint" />
          </mxGeometry>
        </mxCell>
        <mxCell id="vnJfhgnDVNhTZriFCoJO-662" value="" style="endArrow=classic;html=1;rounded=0;dashed=1;fontFamily=Helvetica;fontSize=16;fontColor=default;startSize=2;endSize=1;targetPerimeterSpacing=1;strokeWidth=1;" edge="1" parent="1">
          <mxGeometry width="50" height="50" relative="1" as="geometry">
            <mxPoint x="364" y="455" as="sourcePoint" />
            <mxPoint x="490" y="410" as="targetPoint" />
          </mxGeometry>
        </mxCell>
        <mxCell id="vnJfhgnDVNhTZriFCoJO-663" value="" style="endArrow=classic;html=1;rounded=0;dashed=1;fontFamily=Helvetica;fontSize=16;fontColor=default;startSize=2;endSize=1;targetPerimeterSpacing=1;strokeWidth=1;" edge="1" parent="1">
          <mxGeometry width="50" height="50" relative="1" as="geometry">
            <mxPoint x="541.58" y="445" as="sourcePoint" />
            <mxPoint x="541.58" y="405" as="targetPoint" />
          </mxGeometry>
        </mxCell>
        <mxCell id="vnJfhgnDVNhTZriFCoJO-664" value="" style="endArrow=classic;html=1;rounded=0;dashed=1;fontFamily=Helvetica;fontSize=16;fontColor=default;startSize=2;endSize=1;targetPerimeterSpacing=1;strokeWidth=1;" edge="1" parent="1">
          <mxGeometry width="50" height="50" relative="1" as="geometry">
            <mxPoint x="579.9999999999999" y="445" as="sourcePoint" />
            <mxPoint x="579.9999999999999" y="405" as="targetPoint" />
          </mxGeometry>
        </mxCell>
        <mxCell id="vnJfhgnDVNhTZriFCoJO-665" value="" style="endArrow=classic;html=1;rounded=0;dashed=1;fontFamily=Helvetica;fontSize=16;fontColor=default;startSize=2;endSize=1;targetPerimeterSpacing=1;strokeWidth=1;" edge="1" parent="1">
          <mxGeometry width="50" height="50" relative="1" as="geometry">
            <mxPoint x="617.58" y="445" as="sourcePoint" />
            <mxPoint x="617.58" y="405" as="targetPoint" />
          </mxGeometry>
        </mxCell>
        <mxCell id="vnJfhgnDVNhTZriFCoJO-666" value="&lt;b&gt;SLM&lt;/b&gt;" style="text;html=1;resizable=0;autosize=1;align=center;verticalAlign=middle;points=[];fillColor=none;strokeColor=none;rounded=0;fontSize=16;rotation=90;" vertex="1" parent="1">
          <mxGeometry x="420" y="362.5" width="50" height="20" as="geometry" />
        </mxCell>
        <mxCell id="vnJfhgnDVNhTZriFCoJO-667" value="" style="ellipse;whiteSpace=wrap;html=1;aspect=fixed;shadow=0;dashed=0;fontFamily=Helvetica;fontSize=16;fontColor=default;strokeColor=#FFF2FC;strokeWidth=1;fillColor=#006666;" vertex="1" parent="1">
          <mxGeometry x="470" y="345" width="20" height="20" as="geometry" />
        </mxCell>
        <mxCell id="vnJfhgnDVNhTZriFCoJO-668" value="" style="ellipse;whiteSpace=wrap;html=1;aspect=fixed;shadow=0;dashed=0;fontFamily=Helvetica;fontSize=16;fontColor=default;strokeColor=#FFF2FC;strokeWidth=1;fillColor=#006666;" vertex="1" parent="1">
          <mxGeometry x="520" y="345" width="20" height="20" as="geometry" />
        </mxCell>
        <mxCell id="vnJfhgnDVNhTZriFCoJO-669" value="" style="ellipse;whiteSpace=wrap;html=1;aspect=fixed;shadow=0;dashed=0;fontFamily=Helvetica;fontSize=16;fontColor=default;strokeColor=#FFF2FC;strokeWidth=1;fillColor=#006666;" vertex="1" parent="1">
          <mxGeometry x="570" y="345" width="20" height="20" as="geometry" />
        </mxCell>
        <mxCell id="vnJfhgnDVNhTZriFCoJO-670" value="" style="ellipse;whiteSpace=wrap;html=1;aspect=fixed;shadow=0;dashed=0;fontFamily=Helvetica;fontSize=16;fontColor=default;strokeColor=#FFF2FC;strokeWidth=1;fillColor=#006666;" vertex="1" parent="1">
          <mxGeometry x="615" y="345" width="20" height="20" as="geometry" />
        </mxCell>
        <mxCell id="vnJfhgnDVNhTZriFCoJO-674" value="" style="ellipse;whiteSpace=wrap;html=1;aspect=fixed;shadow=0;dashed=0;fontFamily=Helvetica;fontSize=16;fontColor=default;strokeColor=#FFF2FC;strokeWidth=1;fillColor=#99FFFF;" vertex="1" parent="1">
          <mxGeometry x="470" y="380" width="20" height="20" as="geometry" />
        </mxCell>
        <mxCell id="vnJfhgnDVNhTZriFCoJO-675" value="" style="ellipse;whiteSpace=wrap;html=1;aspect=fixed;shadow=0;dashed=0;fontFamily=Helvetica;fontSize=16;fontColor=default;strokeColor=#FFF2FC;strokeWidth=1;fillColor=#99FFFF;" vertex="1" parent="1">
          <mxGeometry x="520" y="380" width="20" height="20" as="geometry" />
        </mxCell>
        <mxCell id="vnJfhgnDVNhTZriFCoJO-676" value="" style="ellipse;whiteSpace=wrap;html=1;aspect=fixed;shadow=0;dashed=0;fontFamily=Helvetica;fontSize=16;fontColor=default;strokeColor=#FFF2FC;strokeWidth=1;fillColor=#99FFFF;" vertex="1" parent="1">
          <mxGeometry x="570" y="380" width="20" height="20" as="geometry" />
        </mxCell>
        <mxCell id="vnJfhgnDVNhTZriFCoJO-677" value="" style="ellipse;whiteSpace=wrap;html=1;aspect=fixed;shadow=0;dashed=0;fontFamily=Helvetica;fontSize=16;fontColor=default;strokeColor=#FFF2FC;strokeWidth=1;fillColor=#99FFFF;" vertex="1" parent="1">
          <mxGeometry x="615" y="380" width="20" height="20" as="geometry" />
        </mxCell>
        <mxCell id="vnJfhgnDVNhTZriFCoJO-680" value="" style="endArrow=classic;html=1;rounded=0;fontFamily=Helvetica;fontSize=16;fontColor=default;targetPerimeterSpacing=1;strokeWidth=1;" edge="1" parent="1">
          <mxGeometry width="50" height="50" relative="1" as="geometry">
            <mxPoint x="490" y="354.58" as="sourcePoint" />
            <mxPoint x="520" y="354.58" as="targetPoint" />
          </mxGeometry>
        </mxCell>
        <mxCell id="vnJfhgnDVNhTZriFCoJO-681" value="" style="endArrow=classic;html=1;rounded=0;fontFamily=Helvetica;fontSize=16;fontColor=default;targetPerimeterSpacing=1;strokeWidth=1;" edge="1" parent="1">
          <mxGeometry width="50" height="50" relative="1" as="geometry">
            <mxPoint x="540" y="354.5799999999999" as="sourcePoint" />
            <mxPoint x="570" y="354.5799999999999" as="targetPoint" />
          </mxGeometry>
        </mxCell>
        <mxCell id="vnJfhgnDVNhTZriFCoJO-682" value="" style="endArrow=classic;html=1;rounded=0;fontFamily=Helvetica;fontSize=16;fontColor=default;targetPerimeterSpacing=1;strokeWidth=1;" edge="1" parent="1">
          <mxGeometry width="50" height="50" relative="1" as="geometry">
            <mxPoint x="590" y="354.5799999999999" as="sourcePoint" />
            <mxPoint x="620" y="354.5799999999999" as="targetPoint" />
          </mxGeometry>
        </mxCell>
        <mxCell id="vnJfhgnDVNhTZriFCoJO-685" value="" style="endArrow=classic;html=1;rounded=0;fontFamily=Helvetica;fontSize=16;fontColor=default;targetPerimeterSpacing=1;strokeWidth=1;" edge="1" parent="1">
          <mxGeometry width="50" height="50" relative="1" as="geometry">
            <mxPoint x="479.58" y="382.5" as="sourcePoint" />
            <mxPoint x="479.58" y="362.5" as="targetPoint" />
          </mxGeometry>
        </mxCell>
        <mxCell id="vnJfhgnDVNhTZriFCoJO-686" value="" style="endArrow=classic;html=1;rounded=0;fontFamily=Helvetica;fontSize=16;fontColor=default;targetPerimeterSpacing=1;strokeWidth=1;" edge="1" parent="1">
          <mxGeometry width="50" height="50" relative="1" as="geometry">
            <mxPoint x="529.5799999999999" y="382.5" as="sourcePoint" />
            <mxPoint x="529.5799999999999" y="362.5" as="targetPoint" />
          </mxGeometry>
        </mxCell>
        <mxCell id="vnJfhgnDVNhTZriFCoJO-687" value="" style="endArrow=classic;html=1;rounded=0;fontFamily=Helvetica;fontSize=16;fontColor=default;targetPerimeterSpacing=1;strokeWidth=1;" edge="1" parent="1">
          <mxGeometry width="50" height="50" relative="1" as="geometry">
            <mxPoint x="579.5799999999999" y="382.5" as="sourcePoint" />
            <mxPoint x="579.5799999999999" y="362.5" as="targetPoint" />
          </mxGeometry>
        </mxCell>
        <mxCell id="vnJfhgnDVNhTZriFCoJO-688" value="" style="endArrow=classic;html=1;rounded=0;fontFamily=Helvetica;fontSize=16;fontColor=default;targetPerimeterSpacing=1;strokeWidth=1;" edge="1" parent="1">
          <mxGeometry width="50" height="50" relative="1" as="geometry">
            <mxPoint x="625.17" y="380" as="sourcePoint" />
            <mxPoint x="625.17" y="360" as="targetPoint" />
          </mxGeometry>
        </mxCell>
        <mxCell id="vnJfhgnDVNhTZriFCoJO-689" value="" style="endArrow=classic;html=1;rounded=0;fontFamily=Helvetica;fontSize=16;fontColor=default;targetPerimeterSpacing=1;strokeWidth=1;" edge="1" parent="1">
          <mxGeometry width="50" height="50" relative="1" as="geometry">
            <mxPoint x="479.5799999999999" y="340" as="sourcePoint" />
            <mxPoint x="479.5799999999999" y="320" as="targetPoint" />
          </mxGeometry>
        </mxCell>
        <mxCell id="vnJfhgnDVNhTZriFCoJO-691" value="" style="endArrow=classic;html=1;rounded=0;fontFamily=Helvetica;fontSize=16;fontColor=default;targetPerimeterSpacing=1;strokeWidth=1;" edge="1" parent="1">
          <mxGeometry width="50" height="50" relative="1" as="geometry">
            <mxPoint x="529.5799999999999" y="340" as="sourcePoint" />
            <mxPoint x="529.5799999999999" y="320" as="targetPoint" />
          </mxGeometry>
        </mxCell>
        <mxCell id="vnJfhgnDVNhTZriFCoJO-692" value="" style="endArrow=classic;html=1;rounded=0;fontFamily=Helvetica;fontSize=16;fontColor=default;targetPerimeterSpacing=1;strokeWidth=1;" edge="1" parent="1">
          <mxGeometry width="50" height="50" relative="1" as="geometry">
            <mxPoint x="579.5799999999999" y="340" as="sourcePoint" />
            <mxPoint x="579.5799999999999" y="320" as="targetPoint" />
            <Array as="points">
              <mxPoint x="579.58" y="340" />
            </Array>
          </mxGeometry>
        </mxCell>
        <mxCell id="vnJfhgnDVNhTZriFCoJO-693" value="" style="endArrow=classic;html=1;rounded=0;fontFamily=Helvetica;fontSize=16;fontColor=default;targetPerimeterSpacing=1;strokeWidth=1;" edge="1" parent="1">
          <mxGeometry width="50" height="50" relative="1" as="geometry">
            <mxPoint x="624.5799999999999" y="340" as="sourcePoint" />
            <mxPoint x="624.5799999999999" y="320" as="targetPoint" />
            <Array as="points">
              <mxPoint x="624.58" y="340" />
            </Array>
          </mxGeometry>
        </mxCell>
        <mxCell id="vnJfhgnDVNhTZriFCoJO-694" value="O" style="text;html=1;resizable=0;autosize=1;align=center;verticalAlign=middle;points=[];fillColor=none;strokeColor=none;rounded=0;shadow=0;dashed=0;fontFamily=Helvetica;fontSize=16;fontColor=default;" vertex="1" parent="1">
          <mxGeometry x="465" y="300" width="30" height="20" as="geometry" />
        </mxCell>
        <mxCell id="vnJfhgnDVNhTZriFCoJO-695" value="BOND" style="text;html=1;resizable=0;autosize=1;align=center;verticalAlign=middle;points=[];fillColor=none;strokeColor=none;rounded=0;shadow=0;dashed=0;fontFamily=Helvetica;fontSize=16;fontColor=default;" vertex="1" parent="1">
          <mxGeometry x="500" y="300" width="60" height="20" as="geometry" />
        </mxCell>
        <mxCell id="vnJfhgnDVNhTZriFCoJO-696" value="ORG" style="text;html=1;resizable=0;autosize=1;align=center;verticalAlign=middle;points=[];fillColor=none;strokeColor=none;rounded=0;shadow=0;dashed=0;fontFamily=Helvetica;fontSize=16;fontColor=default;" vertex="1" parent="1">
          <mxGeometry x="555" y="300" width="50" height="20" as="geometry" />
        </mxCell>
        <mxCell id="vnJfhgnDVNhTZriFCoJO-697" value="RATE" style="text;html=1;resizable=0;autosize=1;align=center;verticalAlign=middle;points=[];fillColor=none;strokeColor=none;rounded=0;shadow=0;dashed=0;fontFamily=Helvetica;fontSize=16;fontColor=default;" vertex="1" parent="1">
          <mxGeometry x="595" y="300" width="60" height="20" as="geometry" />
        </mxCell>
        <mxCell id="vnJfhgnDVNhTZriFCoJO-698" value="" style="html=1;shadow=0;dashed=0;align=center;verticalAlign=middle;shape=mxgraph.arrows2.arrow;dy=0.6;dx=10;direction=north;notch=0;fontSize=6;strokeColor=#000000;strokeWidth=1;fillColor=#FFFFFF;" vertex="1" parent="1">
          <mxGeometry x="390" y="670" width="20" height="25" as="geometry" />
        </mxCell>
      </root>
    </mxGraphModel>
  </diagram>
</mxfile>
